<?xml version="1.0" standalone="no"?>
<!DOCTYPE svg PUBLIC "-//W3C//DTD SVG 20010904//EN"
 "http://www.w3.org/TR/2001/REC-SVG-20010904/DTD/svg10.dtd">
<svg version="1.0" xmlns="http://www.w3.org/2000/svg"
 width="16.000000pt" height="16.000000pt" viewBox="0 0 16.000000 16.000000"
 preserveAspectRatio="xMidYMid meet">
<metadata>
Created by potrace 1.11, written by Peter Selinger 2001-2013
</metadata>
<g transform="translate(0.000000,16.000000) scale(0.006154,-0.006154)"
fill="#000000" stroke="none">
<path d="M1153 2545 c0 -8 4 -12 9 -9 5 3 6 10 3 15 -9 13 -12 11 -12 -6z"/>
<path d="M1190 2532 c6 -13 14 -21 18 -18 3 4 -2 14 -12 24 -18 16 -18 16 -6
-6z"/>
<path d="M1070 2525 c0 -8 -5 -15 -11 -15 -5 0 -8 4 -5 8 2 4 -6 8 -19 8 -13
0 -21 -4 -19 -8 5 -7 -11 -12 -29 -9 -5 1 -5 -4 -1 -10 4 -7 0 -9 -14 -5 -11
4 -23 2 -27 -4 -3 -6 -11 -8 -16 -4 -6 3 -19 -2 -29 -11 -11 -10 -32 -18 -48
-18 -16 -1 -29 -7 -29 -14 0 -10 4 -10 16 0 14 11 14 10 2 -6 -9 -11 -18 -14
-25 -8 -7 6 -18 4 -30 -5 -11 -8 -16 -14 -12 -14 5 0 3 -7 -4 -15 -9 -11 -17
-12 -31 -4 -11 5 -19 6 -18 2 3 -19 -2 -33 -12 -33 -5 0 -7 5 -3 12 4 7 3 8
-4 4 -7 -4 -12 -13 -12 -20 0 -17 -47 -49 -60 -41 -5 3 -7 -3 -5 -14 2 -14 -1
-18 -11 -14 -8 3 -17 -4 -23 -20 -5 -14 -16 -29 -23 -33 -11 -6 -11 -5 0 8 9
11 10 18 2 23 -6 4 -9 1 -8 -7 2 -7 -3 -12 -10 -10 -10 2 -10 -2 -2 -18 6 -11
7 -20 3 -19 -23 4 -35 -3 -30 -15 4 -11 1 -13 -10 -9 -12 5 -14 3 -8 -7 5 -9
4 -11 -3 -6 -7 4 -12 2 -12 -4 0 -7 -7 -10 -15 -7 -8 4 -17 1 -21 -5 -5 -7 -2
-8 6 -3 8 5 11 3 8 -6 -3 -8 -11 -13 -17 -11 -9 2 -9 -3 0 -19 7 -14 7 -19 0
-15 -11 7 -36 -29 -36 -54 -1 -8 -7 -14 -14 -12 -8 2 -11 -3 -8 -12 4 -10 1
-13 -9 -9 -10 4 -12 0 -8 -11 4 -11 1 -16 -11 -16 -9 0 -13 -5 -10 -10 8 -13
-16 -38 -32 -33 -16 6 -23 -11 -11 -27 8 -12 9 -12 4 3 -3 9 -1 17 4 17 6 0
10 -8 11 -17 0 -14 3 -13 11 5 6 12 15 22 20 22 15 0 -20 -44 -37 -46 -9 -1
-19 4 -22 12 -3 8 -10 11 -15 8 -7 -4 -7 0 0 12 5 11 7 25 5 32 -3 6 0 12 6
12 13 0 10 22 -4 32 -19 14 -28 8 -14 -9 12 -15 12 -16 -4 -10 -12 5 -16 3
-11 -5 5 -8 2 -9 -11 -4 -15 5 -16 4 -5 -9 11 -13 11 -18 0 -28 -9 -9 -11 -9
-6 0 3 6 2 14 -2 17 -5 3 -9 -5 -8 -17 1 -16 7 -21 21 -19 16 2 17 1 6 -7 -10
-6 -21 -6 -33 0 -17 9 -22 5 -19 -13 0 -5 -5 -8 -12 -8 -8 0 -7 -3 3 -9 8 -6
19 -7 25 -4 5 4 2 -3 -8 -14 -9 -11 -14 -23 -10 -28 5 -4 2 -5 -4 -1 -7 4 -14
2 -14 -3 -1 -6 -2 -17 -3 -23 0 -7 -11 -17 -23 -23 -13 -5 -23 -13 -23 -18 0
-4 4 -6 9 -2 5 3 12 1 16 -5 3 -5 -1 -10 -9 -10 -8 0 -18 -5 -22 -12 -4 -7 -3
-8 4 -4 7 4 12 2 12 -4 0 -6 5 -8 12 -4 6 4 8 3 4 -4 -3 -6 -15 -9 -26 -7 -12
2 -20 -2 -20 -10 0 -9 6 -12 15 -9 8 4 15 3 15 0 0 -4 -12 -11 -26 -16 -14 -6
-22 -14 -19 -20 12 -20 14 -50 3 -56 -7 -4 -8 -2 -4 4 5 8 1 10 -10 5 -15 -5
-15 -7 0 -15 18 -10 11 -32 -7 -22 -7 3 -4 -1 6 -9 16 -14 16 -15 -5 -20 -21
-6 -21 -7 -4 -26 18 -19 18 -21 2 -27 -14 -5 -15 -9 -4 -15 8 -5 9 -9 2 -9 -7
0 -15 -12 -19 -27 -10 -36 -13 -133 -4 -127 4 2 9 -8 12 -21 2 -14 0 -28 -6
-32 -6 -4 -7 -1 -2 7 5 8 4 11 -3 6 -6 -3 -9 -16 -7 -28 3 -12 -1 -28 -7 -35
-8 -11 -7 -12 6 -7 12 4 16 0 16 -16 0 -13 4 -19 12 -14 7 4 8 3 4 -5 -4 -6
-11 -9 -16 -6 -11 7 -7 -22 5 -32 4 -4 5 -2 0 6 -6 10 -4 12 4 7 9 -6 9 -11 0
-22 -6 -7 -16 -11 -22 -7 -6 3 -7 1 -3 -5 5 -9 13 -9 26 -2 15 8 18 6 15 -8
-2 -9 -4 -27 -4 -40 -1 -16 -5 -21 -13 -16 -9 5 -9 2 1 -9 15 -18 26 -23 16
-7 -3 6 -1 10 4 10 14 0 14 -13 -1 -28 -9 -9 -9 -12 0 -12 7 0 11 -3 11 -7 -3
-21 2 -33 13 -27 7 4 8 3 4 -5 -4 -6 -11 -9 -16 -6 -5 3 -12 0 -16 -6 -4 -8
-3 -9 4 -5 7 4 12 1 12 -9 0 -9 4 -13 10 -10 5 3 10 0 10 -9 0 -8 -6 -17 -12
-19 -10 -4 -10 -6 0 -6 7 -1 10 -5 7 -11 -3 -5 0 -7 8 -4 19 7 32 -12 16 -22
-8 -5 -9 -3 -4 6 6 9 4 11 -4 5 -9 -5 -7 -13 10 -31 12 -13 19 -30 16 -38 -4
-9 -2 -18 4 -21 5 -4 6 -12 2 -18 -4 -7 2 -5 12 3 14 11 17 11 11 1 -5 -8 -3
-17 5 -22 11 -7 11 -9 1 -9 -7 0 -11 -4 -7 -10 3 -5 13 -6 23 -3 11 4 8 -2 -8
-17 -14 -13 -18 -21 -9 -17 19 6 44 -7 44 -25 1 -7 7 -12 14 -10 7 1 10 -2 5
-9 -4 -7 1 -19 12 -27 17 -13 17 -14 1 -9 -15 6 -16 4 -7 -13 11 -21 25 -28
15 -7 -4 6 1 3 9 -8 9 -11 14 -25 12 -32 -3 -7 2 -10 14 -8 11 2 23 -1 26 -7
4 -7 2 -8 -4 -4 -7 4 -12 1 -12 -9 0 -10 5 -13 12 -9 8 5 9 2 4 -11 -6 -16 -4
-16 11 -4 11 9 14 10 9 1 -5 -8 -1 -12 11 -13 10 0 13 -3 6 -6 -10 -3 -10 -8
1 -19 8 -8 19 -14 24 -14 5 0 9 -8 8 -17 0 -11 12 -24 32 -35 27 -13 30 -17
15 -21 -11 -3 -8 -5 11 -6 22 -1 27 -5 22 -17 -4 -12 -2 -15 9 -11 8 4 17 1
21 -5 4 -7 10 -6 16 3 8 11 9 11 5 -1 -2 -8 -13 -14 -23 -12 -18 2 -18 2 -1
-9 10 -6 25 -8 34 -5 12 5 13 4 5 -7 -9 -11 -7 -13 11 -13 16 1 21 -4 19 -18
-2 -11 1 -15 7 -11 6 3 11 1 11 -6 0 -7 3 -9 7 -6 3 4 12 2 20 -4 9 -9 13 -8
13 0 0 6 5 11 11 11 5 0 8 -4 5 -9 -8 -12 4 -42 14 -36 4 3 13 -2 20 -10 6 -7
19 -11 27 -8 10 4 14 2 10 -4 -5 -7 0 -9 13 -6 12 3 20 0 20 -6 0 -7 -5 -9
-12 -5 -7 4 -8 3 -4 -4 4 -6 14 -8 23 -5 12 5 14 3 8 -8 -7 -11 -5 -11 10 1
15 12 17 12 10 1 -6 -11 -3 -13 14 -8 15 3 24 -1 32 -14 5 -11 14 -17 20 -14
13 8 51 -4 44 -15 -3 -4 4 -6 15 -3 11 3 20 0 20 -6 0 -6 7 -8 17 -4 10 4 14
2 10 -4 -5 -7 0 -9 13 -6 11 3 17 10 13 16 -3 6 -1 7 5 3 6 -4 9 -12 6 -20 -3
-7 2 -13 10 -13 9 0 12 6 8 16 -3 9 7 4 23 -11 15 -15 31 -25 36 -22 14 8 0
25 -14 18 -7 -4 -6 -1 2 7 10 10 15 11 18 2 2 -7 12 -9 21 -6 14 4 15 3 2 -6
-13 -9 -13 -12 -1 -23 8 -7 11 -8 8 -2 -4 7 0 14 8 18 8 3 15 1 15 -4 0 -6 5
-10 11 -10 5 0 8 4 5 9 -3 5 1 11 9 15 8 3 14 2 14 -2 -1 -4 -1 -14 0 -22 1
-13 2 -13 11 0 7 11 31 15 100 15 49 1 90 -2 90 -5 0 -4 15 -6 34 -6 24 1 32
4 25 12 -10 12 19 13 39 0 6 -4 17 -4 22 -1 6 4 19 1 28 -7 15 -12 16 -11 3 5
-8 9 -11 21 -7 24 4 4 10 3 14 -3 4 -5 18 -8 32 -6 14 1 32 4 41 5 9 1 15 6
13 12 -3 6 5 11 16 12 13 1 18 -2 13 -10 -5 -9 -2 -8 9 0 8 7 18 10 22 6 4 -4
4 1 0 12 -7 17 -6 18 8 7 12 -10 20 -10 42 2 19 9 23 16 14 20 -7 3 -3 4 9 2
15 -2 23 2 26 16 5 16 9 18 26 9 27 -15 36 -14 22 3 -9 11 -9 16 0 22 8 4 9 3
5 -4 -11 -19 5 -14 20 5 12 16 15 16 24 3 8 -13 10 -12 10 4 0 15 3 16 15 6
13 -11 14 -10 8 5 -5 14 -3 17 10 12 8 -3 21 1 27 9 8 9 9 14 2 14 -6 0 -13
-6 -15 -12 -4 -10 -6 -10 -6 -1 -1 18 18 26 34 13 12 -10 13 -8 10 10 -3 17
-1 19 9 11 14 -12 27 -2 39 31 3 9 14 15 24 14 26 -5 36 4 23 19 -8 9 -5 12
14 10 18 -2 23 1 19 11 -3 8 2 17 11 20 9 3 13 10 10 15 -3 5 -2 9 3 8 20 -3
51 14 47 26 -3 7 0 16 7 21 8 5 10 3 4 -6 -6 -9 -4 -11 4 -6 7 5 10 15 6 23
-4 13 -3 13 8 4 12 -9 14 -7 13 11 -1 15 7 27 22 33 13 6 20 16 17 24 -3 8 0
11 9 8 10 -4 13 -1 10 7 -3 8 0 17 5 21 6 3 9 10 6 15 -3 4 2 11 11 14 15 6
15 4 0 -19 -9 -14 -12 -25 -7 -25 5 0 15 16 22 34 7 20 17 32 23 29 6 -4 5 0
-2 9 -11 14 -9 18 14 30 28 13 44 38 25 38 -6 0 -10 -5 -9 -11 2 -6 -4 -14
-12 -17 -12 -4 -12 -1 2 19 9 13 21 23 27 22 6 -2 8 4 5 12 -4 8 1 17 10 21 9
3 13 10 10 15 -3 5 -11 6 -17 2 -7 -4 -6 0 2 10 16 20 26 23 15 5 -6 -9 -3 -9
9 1 9 7 19 29 23 50 4 20 12 39 18 43 8 5 7 8 -1 8 -7 0 -13 5 -13 11 0 6 10
8 23 5 12 -3 16 -3 10 0 -10 4 -10 11 -2 26 8 16 8 23 -2 30 -10 7 -8 8 9 5
18 -4 21 -2 13 7 -7 9 -7 16 2 26 6 7 7 10 1 7 -17 -10 -10 29 9 48 10 9 15
21 12 26 -14 21 -13 50 0 55 12 5 12 10 3 27 -11 21 -10 21 7 7 12 -10 16 -10
11 -2 -4 7 -3 19 3 26 8 9 7 13 -4 13 -8 0 -12 -4 -9 -9 3 -4 -2 -5 -12 -1
-14 5 -13 8 7 19 15 8 18 13 9 14 -10 0 -11 3 -4 8 15 10 26 54 11 45 -18 -11
-38 -12 -31 -2 3 5 10 6 16 3 7 -5 9 -1 5 9 -3 9 -1 19 5 23 6 4 8 3 5 -3 -3
-5 0 -10 8 -10 12 0 12 3 3 14 -9 11 -8 17 3 24 8 5 9 9 4 9 -6 0 -16 -5 -21
-10 -12 -12 -12 14 1 43 4 10 5 21 2 24 -4 3 -1 15 5 27 10 19 10 20 -5 7 -21
-17 -22 -7 -1 24 14 21 14 23 0 21 -20 -3 -33 -16 -16 -16 7 0 11 -2 8 -5 -3
-3 -12 -3 -21 1 -13 5 -12 10 11 31 15 13 21 22 15 18 -16 -8 -16 0 -3 25 9
16 8 19 -7 13 -10 -3 -15 -3 -11 2 4 4 3 14 -3 22 -9 9 -8 13 0 13 6 0 11 5
11 10 0 6 -11 3 -24 -5 -18 -12 -26 -13 -32 -4 -5 8 -3 9 6 4 9 -6 11 -4 5 5
-5 8 -4 11 2 7 6 -4 17 1 24 11 12 15 12 16 -2 4 -14 -10 -18 -10 -23 3 -3 9
-2 13 3 10 5 -3 12 -1 15 4 4 5 2 12 -4 16 -5 3 -10 11 -10 16 0 6 5 7 11 4 6
-4 5 2 -2 13 -9 15 -17 18 -25 11 -9 -7 -15 -5 -22 7 -8 15 -10 15 -15 0 -4
-9 -2 -15 5 -13 5 1 12 -5 13 -13 2 -8 7 -24 11 -34 6 -15 4 -17 -7 -11 -12 8
-12 6 -1 -8 8 -9 11 -20 9 -25 -3 -4 -2 -14 3 -22 5 -8 5 -21 0 -30 -5 -9 -5
-22 0 -30 5 -9 4 -20 -3 -30 -11 -13 -10 -13 7 0 18 14 19 13 13 -2 -4 -11 0
-21 10 -26 14 -8 13 -10 -1 -15 -10 -4 -15 -3 -12 2 3 5 -1 12 -10 15 -10 4
-13 2 -8 -6 4 -6 8 -23 10 -37 1 -14 2 -30 3 -34 1 -5 5 -6 10 -2 5 3 12 2 15
-3 8 -13 -28 -11 -36 2 -5 8 -8 7 -8 -2 0 -7 7 -15 15 -18 8 -4 12 -10 9 -15
-3 -5 -10 -6 -16 -3 -6 4 -8 2 -4 -4 3 -5 0 -13 -6 -16 -7 -3 -3 -3 9 -1 12 3
25 0 29 -6 4 -7 3 -9 -2 -6 -6 3 -16 2 -24 -3 -15 -10 -23 -60 -9 -60 6 0 7 4
4 10 -4 6 1 7 11 3 16 -6 16 -7 -3 -16 -25 -11 -35 -41 -19 -58 8 -9 8 -10 0
-6 -7 4 -15 0 -18 -9 -3 -8 -2 -12 4 -9 6 3 10 1 10 -4 0 -6 -4 -11 -9 -11
-14 0 -22 -31 -11 -45 13 -15 3 -25 -18 -17 -15 5 -15 4 -3 -11 16 -20 12 -27
-17 -30 -11 0 -20 -4 -20 -7 0 -3 -1 -9 -2 -15 -1 -5 -3 -17 -4 -25 0 -8 -7
-14 -13 -12 -7 1 -13 -2 -13 -8 0 -19 27 -10 37 12 6 15 12 18 17 10 4 -7 2
-12 -3 -12 -6 0 -11 -7 -11 -15 0 -8 -7 -15 -15 -15 -9 0 -18 -7 -21 -15 -4
-8 -11 -12 -17 -8 -6 3 -7 1 -3 -5 10 -17 -4 -15 -25 4 -11 10 -19 12 -24 4
-3 -6 -3 -9 2 -8 9 3 13 -5 13 -28 0 -8 -4 -12 -10 -9 -5 3 -10 1 -10 -5 0 -6
-5 -8 -12 -4 -6 4 -8 3 -5 -3 8 -13 -55 -81 -71 -76 -8 3 -10 -1 -6 -12 4 -10
2 -15 -7 -13 -7 2 -13 -3 -14 -9 0 -7 -3 -12 -7 -10 -10 3 -57 -44 -55 -57 1
-6 -6 -10 -15 -10 -10 1 -15 -2 -12 -7 5 -8 -10 -13 -29 -10 -5 1 -6 -3 -2 -9
3 -6 0 -17 -9 -25 -10 -10 -16 -11 -18 -3 -5 14 -28 2 -28 -15 0 -7 4 -6 10 3
7 10 10 11 10 2 0 -7 -11 -18 -25 -24 -14 -6 -25 -16 -25 -22 0 -6 -5 -4 -10
4 -7 12 -10 12 -10 1 0 -8 -6 -11 -16 -7 -10 4 -13 2 -8 -6 5 -7 -1 -9 -19 -6
-24 5 -25 3 -15 -16 6 -12 7 -18 3 -14 -5 4 -15 2 -23 -5 -13 -9 -14 -9 -8 1
4 6 3 12 -2 12 -5 0 -14 -10 -21 -22 -6 -13 -10 -16 -7 -6 3 11 -1 15 -12 13
-9 -2 -20 -4 -24 -4 -4 -1 -5 -8 -1 -17 5 -14 3 -15 -18 -4 -22 12 -23 12 -11
-3 12 -14 11 -16 -7 -12 -12 2 -21 -1 -21 -7 0 -6 -3 -8 -6 -5 -4 4 -2 13 4
20 9 10 8 14 -3 14 -8 0 -12 -4 -9 -9 9 -14 -8 -9 -30 9 -15 13 -14 9 4 -11
14 -16 20 -26 13 -22 -6 3 -14 2 -17 -3 -4 -5 -18 -8 -32 -5 -15 3 -23 1 -20
-5 4 -5 1 -13 -5 -17 -8 -4 -9 -3 -5 4 4 7 1 12 -8 12 -9 0 -16 -4 -16 -10 0
-5 -5 -10 -11 -10 -5 0 -8 4 -4 9 3 6 -4 9 -15 8 -22 -1 -27 -13 -8 -19 8 -3
6 -7 -5 -11 -9 -3 -16 -3 -16 1 3 20 -2 32 -11 27 -6 -4 -8 -10 -5 -15 3 -5 0
-12 -6 -16 -8 -5 -9 -3 -4 6 6 10 4 12 -7 7 -9 -3 -27 1 -42 8 -15 8 -26 10
-26 4 0 -6 -4 -7 -10 -4 -6 4 -7 -1 -4 -12 5 -15 4 -16 -5 -3 -6 8 -11 11 -11
5 0 -5 -7 -1 -15 9 -12 16 -15 17 -15 4 0 -9 -7 -19 -16 -22 -24 -9 -31 -7
-11 5 9 5 17 15 17 22 0 8 -3 8 -8 2 -12 -16 -56 -39 -46 -24 5 9 -1 11 -24 6
-20 -4 -32 -2 -32 4 0 6 -4 8 -9 4 -5 -3 -13 -1 -16 5 -5 8 -12 7 -23 -2 -9
-7 -13 -8 -9 -2 4 6 -3 20 -15 30 -21 19 -21 19 -8 -6 10 -19 10 -22 0 -13 -7
6 -20 9 -29 5 -14 -5 -14 -4 -1 13 14 17 14 18 -9 6 -18 -10 -25 -10 -35 0 -8
9 -8 10 2 5 6 -4 12 -2 12 4 0 6 5 8 12 4 7 -4 8 -3 4 4 -7 12 -54 -3 -68 -23
-5 -6 -8 -5 -8 3 0 7 -4 11 -10 7 -5 -3 -16 7 -24 22 -8 15 -15 22 -16 16 0
-10 -6 -10 -25 -1 -14 6 -25 15 -25 20 0 10 23 6 33 -7 5 -6 7 -4 4 5 -2 8
-10 14 -16 12 -6 -1 -11 3 -11 10 0 6 -6 3 -14 -7 -12 -16 -15 -17 -34 -3 -12
8 -19 18 -14 23 4 4 0 5 -8 3 -23 -8 -50 10 -44 30 5 14 3 14 -12 -3 -14 -17
-16 -17 -11 -2 4 9 2 18 -3 18 -6 1 -14 3 -20 4 -5 1 -16 3 -22 4 -9 1 -8 4 2
11 8 5 11 10 6 10 -5 0 -2 8 5 18 11 14 11 15 -1 4 -17 -14 -34 -16 -25 -2 3
6 -4 10 -18 10 -16 0 -28 8 -35 25 -6 14 -16 26 -22 26 -5 1 -14 2 -19 3 -5 0
-13 5 -18 10 -5 5 -3 6 5 2 6 -4 12 -4 12 1 0 4 -14 16 -30 25 -19 11 -30 25
-30 39 0 15 -4 19 -16 15 -8 -3 -12 -2 -9 4 3 6 1 10 -6 10 -7 0 -9 3 -6 7 4
3 -2 13 -13 20 -11 8 -18 19 -14 24 3 6 -2 17 -12 25 -18 14 -18 15 6 10 14
-3 19 -3 12 0 -6 3 -10 9 -7 13 2 5 -7 6 -21 3 -23 -4 -25 -2 -20 15 5 16 1
22 -15 26 -20 5 -21 8 -8 23 12 16 12 17 -2 12 -13 -5 -16 -2 -11 14 3 14 1
19 -6 14 -6 -3 -14 -1 -18 5 -4 8 -3 9 4 5 7 -4 12 -2 12 4 0 6 6 8 13 4 7 -4
9 -3 4 2 -5 5 -14 9 -20 9 -7 0 -12 7 -12 15 0 9 -8 14 -20 12 -15 -2 -16 0
-7 6 11 7 10 13 -5 27 -17 17 -17 18 -1 12 10 -3 18 -2 18 3 0 6 -4 10 -10 10
-5 0 -7 7 -4 15 4 8 -1 17 -10 21 -20 8 -21 21 -1 21 8 0 15 -4 15 -9 0 -5 5
-6 11 -2 8 4 7 9 -2 15 -8 5 -12 9 -9 10 3 0 15 2 28 5 12 2 22 -1 22 -7 0 -5
-4 -7 -10 -4 -5 3 -10 2 -10 -4 0 -5 8 -15 17 -20 12 -7 14 -10 4 -11 -10 0
-11 -3 -2 -14 9 -10 8 -16 -3 -26 -13 -10 -14 -8 -11 10 2 13 1 19 -3 16 -4
-4 -7 -11 -7 -14 0 -4 -4 -13 -9 -20 -4 -7 -5 -16 -2 -19 3 -4 6 0 6 8 0 11 2
11 10 -1 6 -10 10 -11 10 -2 0 6 5 12 11 12 5 0 7 -4 4 -10 -3 -5 -1 -10 4
-10 6 0 11 5 11 12 0 6 2 9 5 7 2 -3 2 -15 -1 -26 -6 -21 -7 -21 -33 -6 l-26
15 25 -20 c19 -16 28 -18 39 -9 11 9 13 9 8 0 -4 -6 0 -18 8 -26 16 -17 20
-31 6 -23 -5 4 -11 3 -14 -1 -2 -5 -2 -3 -1 4 2 7 -1 15 -5 17 -5 3 -8 -5 -7
-17 1 -17 7 -22 28 -21 23 1 26 -1 18 -17 -14 -25 -12 -35 2 -21 7 7 17 12 22
12 6 0 4 -5 -4 -10 -10 -6 -11 -10 -2 -10 7 0 12 -13 12 -32 0 -30 1 -31 15
-12 15 18 15 18 8 0 -4 -13 -3 -17 5 -12 8 5 10 1 5 -10 -4 -11 -3 -15 5 -10
6 3 16 -2 22 -13 8 -16 7 -22 -9 -30 -10 -6 -21 -7 -25 -4 -3 3 -6 2 -6 -4 0
-6 11 -10 24 -9 13 0 22 4 19 9 -8 14 8 7 29 -12 11 -11 18 -26 15 -34 -4 -10
1 -14 16 -12 31 2 40 -5 27 -20 -12 -15 14 -30 33 -18 7 3 9 3 5 -1 -9 -10 14
-36 25 -29 5 3 3 -5 -4 -18 -11 -22 -11 -23 5 -10 14 12 19 12 29 1 10 -10 9
-11 -3 -6 -8 4 -7 1 3 -8 11 -8 27 -13 37 -11 12 2 28 -8 42 -26 22 -28 47
-41 32 -17 -5 7 -3 8 5 4 10 -6 9 -12 -1 -24 -18 -22 -17 -54 2 -59 11 -3 11
-2 3 4 -17 12 -10 46 10 49 9 1 27 -7 39 -18 l23 -20 -27 16 c-17 10 -29 12
-33 6 -4 -6 -3 -9 2 -8 4 1 19 -4 32 -11 20 -11 25 -11 32 0 7 12 9 11 10 -1
1 -8 1 -19 0 -23 -1 -5 3 -6 8 -3 5 4 23 8 40 10 26 3 29 1 20 -10 -14 -17
-33 -19 -23 -2 5 7 3 8 -6 3 -23 -14 17 -36 46 -25 16 6 24 6 24 -1 0 -6 5 -7
12 -3 7 4 8 3 4 -4 -4 -7 -2 -12 3 -12 6 0 11 5 11 12 0 6 9 1 20 -12 11 -13
20 -19 20 -15 0 5 7 0 15 -11 8 -10 15 -14 15 -7 0 6 -12 20 -27 31 -23 17
-26 23 -15 34 11 11 12 10 6 -6 -5 -13 -4 -17 3 -13 6 4 14 1 16 -5 4 -10 6
-10 6 0 1 8 8 6 23 -7 11 -11 25 -18 30 -15 5 3 1 12 -9 21 -16 13 -16 13 5 3
19 -9 21 -14 11 -26 -8 -10 -8 -14 0 -14 6 0 16 10 21 22 7 18 9 19 9 6 1 -10
6 -18 11 -18 6 0 10 8 10 18 0 14 2 15 10 2 6 -10 6 -16 0 -18 -6 -2 -7 -8 -4
-13 3 -6 12 -5 21 2 9 8 17 9 21 3 4 -5 18 -10 32 -11 14 -1 19 0 12 3 -10 5
-10 9 -1 20 13 16 -1 19 -19 4 -6 -6 -10 -7 -7 -4 3 4 -3 13 -13 21 -9 8 -12
12 -5 9 6 -4 15 -1 19 5 4 7 3 9 -4 5 -6 -3 -13 -2 -17 4 -3 5 -12 10 -18 10
-7 0 -6 -4 3 -10 13 -8 13 -10 -2 -10 -9 0 -20 9 -23 21 -6 17 -9 18 -22 7 -9
-7 -19 -13 -22 -13 -3 0 -5 -4 -3 -8 1 -5 -2 -6 -8 -2 -8 5 -8 11 1 21 6 7 15
12 18 9 4 -2 8 2 8 9 0 11 -5 11 -25 0 -22 -11 -27 -11 -38 4 -12 16 -13 15
-14 -3 -1 -18 -2 -18 -10 3 -8 19 -13 21 -30 12 -11 -6 -20 -7 -19 -3 5 28 -2
36 -16 17 -14 -18 -14 -18 -10 4 2 12 0 20 -5 17 -5 -3 -13 3 -19 12 -6 10
-11 13 -11 8 0 -6 -8 -15 -18 -22 -15 -9 -19 -8 -19 3 0 7 5 10 10 7 6 -3 7
-1 3 5 -4 7 -16 12 -28 12 -11 0 -22 8 -25 20 -3 11 -9 20 -14 20 -5 0 -7 -6
-5 -12 1 -7 1 -10 -1 -5 -3 4 -10 4 -15 1 -6 -4 -8 -3 -5 3 4 6 0 19 -8 29
-15 19 -15 18 -9 -1 4 -17 3 -16 -8 3 -11 18 -16 20 -27 10 -11 -11 -13 -10
-8 5 4 9 2 17 -4 17 -6 0 -7 5 -3 11 4 7 -2 6 -17 -2 -22 -11 -23 -11 -10 4
12 15 11 17 -3 17 -10 0 -15 4 -12 8 2 4 -5 14 -17 22 -20 12 -21 12 -9 -3 9
-10 10 -17 2 -22 -6 -4 -10 -3 -9 2 3 20 -15 53 -30 53 -14 0 -14 2 -1 10 13
9 13 10 -1 10 -8 0 -26 12 -40 27 -13 14 -19 23 -12 19 6 -3 15 -2 18 4 4 6 3
10 -2 9 -23 -4 -33 3 -33 24 0 18 -2 19 -10 7 -8 -12 -10 -11 -10 8 0 12 -4
22 -8 22 -5 0 -13 15 -19 32 -6 22 -8 25 -6 8 l3 -25 -15 25 c-8 14 -14 33
-15 43 0 9 -5 17 -11 17 -8 0 -7 6 2 17 12 14 12 16 0 8 -11 -6 -13 -4 -9 7 7
17 -25 72 -35 61 -4 -3 -7 -1 -7 5 0 7 6 12 13 12 8 0 7 4 -3 11 -12 8 -12 12
-2 16 20 8 -15 43 -36 36 -14 -4 -14 -3 -3 5 12 8 12 13 2 25 -8 10 -9 17 -1
22 10 6 11 5 14 -14 0 -6 8 -16 16 -23 12 -11 12 -11 3 2 -6 8 -9 23 -8 32 2
10 0 17 -3 17 -20 -3 -32 2 -27 11 4 6 11 7 17 4 7 -4 8 -2 4 5 -4 6 -11 9
-16 6 -14 -8 -20 10 -8 25 8 12 8 11 3 -5 -4 -14 -3 -17 5 -9 12 12 3 47 -10
39 -11 -7 -7 29 5 37 6 4 1 8 -10 9 -17 1 -16 2 5 9 14 4 18 8 9 9 -12 1 -15
8 -11 27 3 16 -1 30 -9 35 -10 6 -11 9 -1 9 8 0 11 9 8 25 -3 14 0 25 6 25 6
0 7 -8 3 -17 -5 -15 -4 -16 6 -5 10 9 10 15 2 23 -6 6 -9 18 -6 27 5 11 3 13
-7 7 -9 -5 -11 -4 -6 4 4 6 12 9 17 6 5 -4 9 -2 9 4 0 5 -6 11 -12 14 -10 3
-10 8 1 18 8 8 11 9 8 3 -3 -6 0 -11 7 -11 15 0 15 21 1 34 -4 4 -5 2 -1 -4 5
-9 2 -11 -10 -6 -10 4 -13 8 -7 10 7 3 9 11 6 19 -3 8 0 14 7 14 6 0 8 -4 5
-10 -3 -5 -2 -10 4 -10 5 0 9 9 8 19 0 11 -6 17 -12 13 -5 -3 -4 2 3 11 8 9
10 22 6 29 -5 8 -1 8 11 -2 12 -10 16 -10 11 -2 -4 7 -2 19 4 27 7 8 9 15 5
15 -4 0 -3 6 2 13 6 6 9 22 8 35 -2 24 10 30 18 10 3 -7 3 6 2 30 -2 24 1 40
6 36 5 -3 6 -10 3 -16 -4 -7 -2 -8 4 -4 6 4 8 14 5 23 -4 9 -2 14 3 10 6 -3
16 3 23 15 7 11 8 17 3 14 -6 -3 -12 1 -15 9 -4 10 -1 12 10 8 12 -5 14 -3 8
7 -6 10 -4 12 10 6 16 -6 16 -4 4 11 -12 15 -12 16 4 10 11 -4 17 -1 17 9 0 9
5 12 13 8 9 -6 9 -5 0 7 -9 11 -8 18 1 32 7 9 17 17 21 17 5 0 0 -10 -11 -22
l-19 -23 23 19 c12 11 20 26 17 33 -3 9 0 11 7 7 7 -5 9 -2 5 9 -4 12 -1 15
14 12 11 -2 17 0 13 6 -3 5 0 17 7 25 10 12 14 12 21 2 7 -9 8 -7 5 8 -4 18 0
22 19 19 16 -1 22 1 16 9 -5 7 1 20 15 33 27 26 31 19 6 -10 -17 -19 -17 -19
4 -6 12 7 24 22 27 32 2 10 9 16 15 12 6 -3 14 1 17 9 3 9 12 16 20 16 8 0 13
6 11 13 -1 7 9 12 25 11 15 0 25 4 22 8 -3 4 2 8 11 8 9 0 13 4 10 10 -4 6 1
7 11 3 11 -4 15 -3 11 4 -5 7 2 10 17 9 14 -2 24 1 23 7 -1 5 4 12 12 15 9 3
11 0 6 -9 -5 -7 6 -2 24 11 l33 23 -7 -24 c-7 -23 -7 -23 8 -4 8 11 13 23 11
27 -7 12 11 17 26 7 10 -6 11 -9 3 -9 -7 0 -13 -5 -13 -11 0 -8 4 -8 15 1 8 6
20 8 27 4 9 -6 9 -3 -1 9 -12 15 -12 17 4 11 14 -6 16 -4 10 7 -7 10 -2 9 17
-3 25 -17 38 -15 38 6 0 6 -5 4 -10 -4 -6 -9 -10 -10 -10 -3 0 15 15 25 24 16
10 -10 48 -14 42 -5 -3 5 7 8 22 7 15 -1 32 2 39 7 7 5 14 5 17 -1 4 -5 15 -8
26 -6 11 2 20 -2 20 -8 0 -7 4 -6 10 3 5 8 10 10 10 3 0 -12 24 -12 36 0 11
11 24 8 24 -5 0 -7 11 -13 24 -13 13 0 22 3 20 7 -2 4 0 9 6 13 5 3 10 -1 10
-9 0 -8 4 -18 10 -21 6 -4 7 1 4 12 -5 17 -5 17 10 -1 10 -13 24 -17 45 -14
16 2 28 1 25 -4 -3 -4 -1 -8 5 -8 5 0 12 6 15 13 4 6 4 2 2 -9 -3 -16 1 -21
13 -19 9 2 20 4 24 4 5 1 5 7 1 14 -5 8 -2 8 9 -2 9 -7 17 -23 18 -35 1 -19 2
-18 9 4 6 18 8 20 9 7 1 -10 4 -16 9 -14 10 7 32 -19 24 -28 -4 -4 4 -2 17 5
20 10 23 10 18 -2 -3 -10 1 -15 11 -15 33 0 42 -3 42 -14 0 -5 -4 -7 -10 -4
-5 3 -10 1 -10 -4 0 -6 10 -10 23 -8 14 1 21 -3 19 -12 -3 -12 0 -12 12 -2 10
8 16 9 21 1 3 -5 0 -10 -7 -10 -8 0 -6 -5 5 -11 13 -8 22 -7 33 1 16 14 19 -1
3 -17 -8 -8 -7 -13 2 -18 7 -5 10 -4 5 3 -12 19 13 23 41 6 28 -16 28 -16 -2
10 -16 15 -29 31 -27 37 1 6 -2 8 -7 5 -16 -10 -25 15 -10 26 11 8 11 9 -2 5
-9 -3 -22 0 -29 6 -7 7 -10 8 -8 2 3 -5 0 -16 -8 -23 -11 -10 -13 -7 -8 20 5
31 4 31 -8 12 -10 -17 -16 -19 -24 -10 -13 14 -15 48 -2 40 5 -3 6 -9 3 -14
-3 -5 -1 -11 5 -15 6 -3 9 4 8 18 -2 17 -8 24 -23 23 -13 -1 -19 -7 -17 -18 1
-9 -1 -19 -6 -22 -5 -3 -8 5 -7 17 3 28 -12 57 -28 57 -8 0 -8 -3 1 -9 11 -7
11 -9 -2 -14 -9 -4 -15 -3 -15 1 3 20 -3 31 -21 37 -11 4 -17 11 -14 17 5 7 2
8 -7 2 -20 -12 -40 -14 -33 -3 3 5 10 6 16 3 6 -4 8 -2 5 4 -4 5 -17 8 -30 4
-20 -5 -21 -4 -8 11 12 15 12 17 -4 11 -10 -4 -21 -1 -26 7 -7 12 -9 12 -9 -1
0 -13 -2 -13 -9 -1 -5 8 -17 16 -25 17 -9 1 -14 -2 -11 -7 4 -5 -1 -6 -9 -3
-9 3 -16 11 -16 16 0 6 -9 8 -20 5 -14 -4 -20 0 -20 11 0 13 -3 12 -15 -4 -15
-19 -15 -19 -8 1 6 18 5 19 -11 6 -9 -8 -16 -10 -15 -5 4 23 -2 26 -16 8 -8
-10 -15 -14 -14 -9 3 22 -2 25 -23 14 -22 -12 -22 -11 -8 6 14 17 14 17 -7 7
-25 -14 -36 -15 -29 -4 2 4 -15 8 -40 8 -24 1 -42 -2 -39 -6 2 -4 -2 -7 -10
-7 -8 0 -12 3 -10 7 2 4 -2 7 -10 7 -8 0 -12 -4 -9 -9 3 -4 1 -8 -5 -8 -5 0
-12 8 -14 18 -4 14 -5 14 -6 -3 -1 -17 -3 -18 -11 -5 -9 13 -11 13 -20 0 -5
-8 -10 -11 -10 -6 0 5 -7 3 -15 -4 -13 -11 -14 -10 -9 3 8 22 -25 16 -44 -9
-13 -17 -14 -17 -9 -1 4 11 1 20 -8 23 -8 4 -12 11 -8 18 4 6 -7 0 -24 -14
-35 -28 -44 -47 -13 -28 11 7 20 16 20 21 0 4 5 5 10 2 14 -9 12 -25 -2 -22
-7 1 -12 -3 -11 -9 1 -5 -8 -10 -20 -11 -48 -1 -58 -3 -52 -13 4 -6 -1 -7 -11
-3 -12 5 -15 3 -9 -6 6 -10 3 -11 -13 -2 -29 16 -40 14 -47 -8 -4 -15 -13 -19
-36 -16 -28 4 -30 3 -17 -13 12 -15 11 -15 -14 1 -23 14 -26 14 -22 2 4 -10 0
-15 -15 -15 -12 0 -21 5 -21 11 0 5 4 8 9 5 4 -3 8 7 7 22 0 18 4 26 13 24 8
-2 11 3 8 12 -4 11 -1 13 10 9 10 -4 14 -2 10 4 -4 6 2 18 12 27 12 11 21 13
25 7 4 -5 -3 -12 -14 -16 -11 -4 -18 -11 -14 -16 4 -6 11 -6 19 1 10 9 13 7
10 -7 -2 -10 -4 -20 -4 -22 -1 -3 -6 0 -12 6 -9 9 -15 8 -26 -3 -8 -8 -20 -11
-26 -7 -7 3 -9 2 -4 -2 11 -13 49 -17 42 -5 -11 17 7 11 21 -7 12 -15 13 -16
8 -2 -3 10 0 20 5 24 6 3 8 11 5 17 -5 7 -1 9 8 5 20 -7 48 23 47 49 0 14 -3
12 -11 -9 -5 -15 -14 -25 -19 -21 -5 3 -5 13 1 25 7 13 7 19 0 19 -5 0 -10 -7
-10 -15z m5 -35 c3 -6 -1 -7 -9 -4 -18 7 -21 14 -7 14 6 0 13 -4 16 -10z m415
6 c0 -2 -7 -7 -16 -10 -8 -3 -12 -2 -9 4 6 10 25 14 25 6z m-572 -32 c-1 -5
-9 -9 -16 -10 -10 -2 -11 1 -1 12 12 14 24 13 17 -2z m35 -28 c3 -7 0 -19 -6
-25 -8 -8 -5 -16 9 -32 l19 -22 -30 19 -30 18 18 -21 c14 -16 15 -23 6 -29 -8
-4 -10 -3 -5 4 13 21 -7 13 -37 -15 -17 -16 -27 -23 -23 -16 3 6 2 14 -4 18
-9 6 -14 -7 -11 -27 1 -6 -35 -30 -49 -32 -3 -1 -4 -5 -2 -10 2 -5 -4 -3 -13
4 -13 11 -14 10 -9 -5 5 -13 4 -16 -4 -11 -7 4 -12 2 -12 -4 0 -6 -4 -8 -10
-5 -5 3 -10 -1 -10 -10 0 -10 5 -13 12 -9 6 4 8 3 5 -4 -4 -5 -16 -8 -27 -5
-18 5 -25 -6 -22 -37 0 -3 -9 -7 -21 -7 -20 -2 -21 -1 -4 11 9 7 17 17 17 21
0 5 -9 0 -19 -9 -11 -10 -17 -24 -14 -32 3 -8 1 -14 -5 -14 -5 0 -12 -9 -15
-21 -4 -14 -10 -18 -18 -13 -9 5 -10 2 -5 -11 5 -15 4 -16 -8 -6 -11 9 -16 9
-22 0 -4 -8 -3 -9 4 -5 7 4 12 1 12 -9 0 -11 -5 -15 -15 -11 -13 5 -14 2 -4
-15 9 -17 8 -20 -2 -14 -9 6 -11 3 -6 -9 4 -11 3 -15 -4 -11 -6 4 -8 14 -5 22
3 8 1 11 -4 8 -6 -3 -10 -15 -10 -25 0 -10 -7 -26 -16 -35 -9 -8 -14 -24 -11
-35 4 -17 2 -18 -14 -9 -13 6 -19 6 -19 -1 0 -5 6 -10 13 -10 9 0 8 -3 -2 -9
-8 -5 -10 -14 -6 -22 6 -9 4 -11 -8 -6 -9 3 -21 -1 -29 -11 -7 -9 -8 -13 -2
-9 13 8 27 -17 16 -28 -4 -4 -7 -16 -7 -28 0 -16 -6 -22 -22 -21 -14 1 -20 -3
-16 -12 3 -8 9 -11 14 -8 5 3 9 1 9 -5 0 -19 -19 -21 -29 -4 -9 16 -10 16 -8
-4 0 -12 5 -19 9 -17 4 3 8 0 8 -6 0 -6 5 -8 12 -4 7 5 8 3 4 -5 -5 -7 -13
-10 -20 -8 -7 3 -23 -1 -37 -9 -13 -7 -18 -13 -11 -14 6 0 12 -4 12 -10 0 -5
-6 -9 -12 -7 -7 1 -12 -6 -12 -15 1 -10 -2 -15 -7 -12 -13 8 -5 42 15 65 19
22 31 63 16 54 -5 -3 -12 0 -16 6 -4 7 -3 9 3 6 6 -4 19 3 29 15 19 21 19 21
-6 8 -22 -12 -24 -11 -13 2 7 8 9 19 5 23 -4 5 -1 5 6 1 7 -4 12 -2 13 6 0 7
5 3 11 -9 6 -13 15 -23 20 -23 5 0 6 5 2 12 -5 7 -3 8 6 3 9 -5 11 -4 6 4 -4
6 -11 9 -16 6 -4 -3 -11 3 -15 13 -14 30 -13 41 0 36 7 -3 16 0 21 7 4 8 3 10
-5 5 -8 -6 -11 0 -9 18 5 31 14 41 24 25 4 -7 3 -10 -3 -6 -5 3 -10 0 -10 -8
0 -10 4 -12 12 -5 7 5 14 9 16 7 2 -1 1 2 -3 8 -11 13 -10 27 1 20 5 -3 13 0
17 6 4 7 3 9 -4 5 -6 -3 -13 -2 -17 4 -3 5 -1 10 5 10 6 0 9 4 6 9 -3 5 1 11
9 14 9 4 12 1 8 -9 -3 -7 -1 -14 5 -14 11 0 11 18 -2 38 -4 7 -3 19 3 26 6 7
9 16 6 19 -3 4 -2 5 1 2 4 -2 13 3 21 11 8 8 18 12 23 9 5 -3 12 -1 15 5 4 6
3 9 -2 8 -4 -2 -9 2 -10 7 -2 6 1 10 6 10 5 0 13 4 18 9 5 5 3 6 -4 2 -7 -4
-13 -2 -13 3 0 10 12 15 31 13 3 0 11 9 19 21 12 20 12 21 -3 8 -22 -17 -22
-7 -1 14 14 13 19 14 26 3 7 -9 8 -7 5 9 -5 22 24 59 36 46 4 -3 7 0 7 7 0 7
3 11 6 7 7 -7 44 24 39 33 -6 10 34 45 42 37 3 -4 1 -7 -6 -7 -7 0 -9 -4 -6
-10 4 -6 11 -5 20 3 9 8 10 16 3 25 -13 15 4 16 20 0 9 -9 11 -7 7 10 -2 15 0
19 11 15 7 -3 12 -9 9 -13 -6 -10 22 -7 32 4 4 4 2 6 -6 4 -8 -2 -15 7 -17 22
-3 21 -2 22 7 8 5 -10 15 -18 22 -18 7 0 6 4 -3 10 -11 7 -11 10 -2 10 7 0 10
5 7 10 -3 6 -4 10 0 10 3 0 10 -10 15 -22 l9 -23 0 23 c1 12 8 25 16 28 8 4
12 10 9 15 -3 5 -1 9 4 9 6 0 12 -6 15 -14z m-147 -21 c-1 -8 -5 -17 -8 -21
-5 -4 -4 16 1 34 3 9 9 -1 7 -13z m921 -20 c0 -8 -4 -15 -9 -15 -10 0 -11 14
-1 23 9 10 10 9 10 -8z m203 -71 c0 -8 -19 -13 -24 -6 -3 5 1 9 9 9 8 0 15 -2
15 -3z m126 -63 c-3 -5 1 -12 10 -15 16 -6 11 -26 -7 -26 -6 0 -8 4 -4 9 3 5
1 12 -5 16 -10 6 -5 25 6 25 3 0 3 -4 0 -9z m-1779 -313 c-3 -8 -6 -5 -6 6 -1
11 2 17 5 13 3 -3 4 -12 1 -19z m36 -52 c19 -15 24 -31 5 -20 -8 5 -9 2 -5 -9
3 -9 2 -19 -4 -22 -5 -4 -6 -11 -3 -17 5 -7 2 -8 -6 -3 -9 6 -10 1 -5 -16 5
-19 4 -21 -4 -9 -10 13 -11 13 -11 0 0 -8 -9 -21 -20 -28 -17 -10 -21 -8 -36
19 -8 17 -11 28 -5 25 6 -4 16 -4 23 0 8 5 6 10 -8 16 -18 8 -18 8 1 5 11 -2
19 -9 18 -15 -3 -13 10 -16 20 -5 4 3 -5 15 -20 26 -16 10 -21 17 -12 14 24
-8 40 12 28 35 -8 14 -6 18 8 18 10 0 26 -7 36 -14z m-48 -16 c3 -5 1 -10 -4
-10 -6 0 -11 5 -11 10 0 6 2 10 4 10 3 0 8 -4 11 -10z m366 -84 c-6 -7 -8 -16
-4 -19 3 -4 1 -7 -5 -7 -15 0 -16 17 -2 25 6 4 7 11 4 17 -4 7 -2 8 5 4 8 -6
9 -12 2 -20z m-376 -36 c3 5 11 8 16 4 6 -4 5 -14 -4 -27 -8 -12 -13 -38 -11
-57 2 -22 0 -29 -6 -20 -5 8 -6 18 -3 23 3 5 -3 3 -14 -3 -10 -7 -19 -23 -19
-36 0 -12 4 -20 8 -18 5 3 6 9 4 13 -3 4 0 13 5 21 8 11 9 8 6 -13 -4 -23 -1
-27 12 -23 13 5 12 3 -2 -8 -10 -8 -18 -17 -18 -20 3 -27 -1 -46 -10 -46 -6 0
-8 8 -4 19 3 11 1 22 -4 26 -7 4 -8 -1 -4 -12 6 -17 5 -17 -15 1 -17 14 -19
23 -11 37 5 11 7 19 3 19 -3 0 -2 6 4 13 13 15 13 29 1 43 -5 7 -4 11 6 11 7
0 13 -3 12 -6 -1 -3 1 -7 6 -8 7 -3 7 4 0 24 -3 7 -10 10 -17 6 -8 -4 -8 -3 0
6 12 13 47 4 39 -9 -3 -5 -1 -11 4 -14 15 -10 6 26 -10 38 -8 6 -15 18 -17 26
-3 11 1 10 16 -3 13 -12 22 -15 27 -7z m155 6 c0 -3 -4 -8 -10 -11 -5 -3 -10
-1 -10 4 0 6 5 11 10 11 6 0 10 -2 10 -4z m24 -48 c-5 -8 -1 -9 12 -5 18 7 18
6 1 -7 -10 -8 -14 -16 -10 -18 4 -3 3 -4 -3 -2 -25 5 -52 -90 -32 -113 6 -7 7
-13 3 -13 -4 0 -2 -7 5 -15 7 -8 9 -15 4 -15 -4 0 -3 -5 4 -12 7 -7 12 -17 12
-23 0 -5 -5 -3 -10 5 -8 12 -10 11 -10 -7 0 -13 0 -26 1 -29 0 -4 -5 -11 -13
-16 -10 -8 -10 -9 2 -5 8 2 14 10 13 16 -2 6 2 11 7 11 13 0 13 -17 0 -25 -5
-3 -10 -11 -10 -16 0 -6 4 -8 9 -4 5 3 12 1 15 -4 4 -5 2 -13 -4 -16 -8 -5 -7
-12 2 -23 11 -13 11 -14 -1 -7 -11 6 -13 4 -8 -8 5 -13 1 -16 -13 -14 -11 2
-23 6 -26 10 -4 4 -12 7 -18 7 -6 0 -2 -7 8 -15 10 -8 23 -12 27 -9 4 2 7 -5
6 -16 -2 -25 -6 -25 -24 -2 -13 15 -13 15 -3 -6 11 -23 37 -25 33 -4 -2 6 7
16 20 22 20 10 20 10 4 -3 -14 -12 -15 -16 -4 -26 8 -6 18 -7 23 -3 5 4 1 -2
-9 -14 -19 -23 -22 -40 -7 -49 5 -3 8 0 7 7 -2 7 -2 10 0 6 5 -9 5 -19 -1 -15
-2 1 -13 -6 -23 -16 -19 -16 -21 -16 -39 5 -14 17 -15 19 -2 9 22 -16 38 -7
33 20 -2 11 2 22 10 26 8 3 12 10 9 15 -4 6 -10 5 -15 -3 -4 -8 -20 -14 -34
-14 -16 -1 -21 3 -15 9 6 6 5 17 -2 30 -7 12 -13 31 -13 44 -2 17 2 21 14 16
29 -12 44 -9 46 8 2 9 -3 22 -11 29 -10 8 -14 8 -14 0 0 -6 4 -11 8 -11 5 0 9
-7 9 -15 0 -17 0 -17 -21 -9 -9 3 -14 10 -11 14 3 5 0 12 -6 16 -8 5 -9 3 -4
-7 8 -12 6 -12 -8 0 -18 14 -22 22 -9 20 18 -3 32 2 32 11 0 5 -8 7 -17 4 -12
-4 -14 -3 -6 3 6 4 11 17 10 28 -1 13 4 20 15 19 10 -1 15 3 12 8 -3 5 -12 7
-19 4 -8 -3 -19 3 -27 12 -12 15 -11 16 5 3 15 -12 17 -11 17 3 0 9 -6 16 -12
17 -10 0 -10 2 0 6 6 2 9 10 5 16 -11 17 -13 38 -3 32 5 -3 11 -1 15 5 3 5 -2
11 -12 11 -17 1 -17 2 0 6 9 2 17 9 17 14 0 6 -4 8 -8 5 -5 -3 -9 1 -9 8 0 7
7 13 16 12 10 -1 15 6 13 17 -2 10 3 16 10 15 7 -2 13 4 13 12 0 8 5 18 10 22
14 11 17 10 9 -4z m1 -70 c-2 -13 -8 -22 -14 -20 -16 3 -14 -7 7 -26 9 -10 13
-14 8 -9 -18 13 -27 7 -16 -12 13 -25 13 -31 -1 -31 -5 0 -8 4 -4 9 3 5 1 12
-5 16 -12 8 -6 60 10 80 16 20 17 19 15 -7z m2047 15 c-10 -4 -9 -9 4 -24 21
-23 12 -26 -10 -3 -17 16 -13 35 7 33 8 0 8 -2 -1 -6z m-2281 -105 c16 -30 3
-33 -16 -4 -10 14 -22 23 -28 19 -6 -3 -7 -1 -3 5 9 15 34 4 47 -20z m-16 -18
c14 -16 21 -17 32 -8 10 8 17 8 26 -1 9 -10 9 -11 -3 -6 -11 4 -16 -1 -17 -15
-1 -12 2 -18 9 -14 7 5 8 2 2 -7 -12 -19 -12 -71 0 -87 6 -9 6 -12 -1 -10 -6
2 -11 -1 -11 -7 0 -5 4 -9 10 -7 5 1 7 -2 3 -8 -3 -6 -11 -8 -16 -5 -5 4 -9 1
-9 -4 0 -6 5 -11 11 -11 5 0 7 -5 3 -12 -5 -7 -11 -5 -21 7 -7 11 -13 14 -13
8 0 -16 23 -31 43 -28 14 3 16 1 7 -10 -7 -8 -8 -20 -4 -26 5 -8 3 -9 -6 -4
-8 5 -11 3 -8 -6 3 -8 11 -13 17 -12 6 2 11 -1 11 -6 0 -14 -53 -6 -58 9 -3 7
0 10 7 6 7 -5 9 -1 4 10 -4 12 -3 15 5 10 7 -4 12 -2 12 3 0 18 -19 12 -30
-10 -8 -14 -8 -24 -1 -33 11 -13 5 -26 -10 -26 -5 0 -5 8 -2 18 6 15 5 16 -13
2 -18 -14 -18 -14 -4 4 12 15 12 20 2 24 -10 3 -7 8 7 19 22 15 28 33 11 33
-5 0 -9 -3 -7 -7 1 -5 -2 -9 -8 -11 -11 -3 -15 47 -4 54 4 2 6 -5 4 -16 -2
-11 0 -18 5 -15 11 7 5 42 -12 63 -10 12 -10 14 0 8 6 -4 12 -3 12 3 0 5 -6
12 -12 14 -7 3 -4 6 6 6 11 1 27 -6 36 -14 14 -13 17 -13 17 0 0 8 -3 12 -7
10 -4 -2 -7 2 -7 10 0 8 3 12 7 10 13 -8 4 45 -9 57 -11 11 -12 10 -6 -1 5 -9
3 -12 -6 -9 -8 3 -13 15 -11 29 2 13 0 20 -4 16 -13 -12 -13 -57 0 -50 6 3 8
3 4 -2 -4 -4 -3 -16 3 -26 11 -21 -5 -27 -18 -6 -11 17 -11 77 0 84 5 3 3 9
-4 14 -8 5 -9 9 -3 9 6 0 19 -9 29 -20z m2323 7 c-1 -2 3 -11 11 -20 10 -13
10 -17 1 -17 -7 0 -10 -7 -7 -15 9 -21 -9 -27 -24 -8 -10 12 -10 14 -1 9 6 -4
12 -5 12 -2 0 2 3 13 7 23 6 16 5 16 -10 4 -10 -8 -20 -11 -24 -7 -3 3 0 6 7
6 7 0 10 3 7 7 -4 3 -2 12 5 20 9 12 25 12 16 0z m-2401 -3 c-3 -3 -12 -4 -19
-1 -8 3 -5 6 6 6 11 1 17 -2 13 -5z m240 -66 c-3 -8 -6 -5 -6 6 -1 11 2 17 5
13 3 -3 4 -12 1 -19z m-142 -5 c-2 -10 -4 -20 -4 -23 -1 -3 -5 2 -11 10 -6 9
-5 17 3 22 16 10 16 10 12 -9z m-121 -32 c3 -5 -1 -11 -9 -14 -9 -4 -12 -1 -8
9 6 16 10 17 17 5z m2411 -40 c3 -5 2 -12 -3 -15 -5 -3 -9 1 -9 9 0 17 3 19
12 6z m40 -21 c3 -6 -1 -7 -9 -4 -18 7 -21 14 -7 14 6 0 13 -4 16 -10z m-2128
-127 c0 -14 -1 -14 -12 1 -7 8 -16 12 -20 8 -5 -4 -5 -2 -1 5 9 16 33 6 33
-14z m2083 21 c0 -8 -19 -13 -24 -6 -3 5 1 9 9 9 8 0 15 -2 15 -3z m-2250 -39
c7 -8 9 -15 6 -15 -4 0 -2 -9 4 -20 9 -16 8 -18 -5 -14 -8 3 -13 10 -10 14 3
5 1 11 -5 15 -6 4 -7 11 -4 17 4 7 2 8 -5 4 -6 -4 -9 -12 -6 -17 4 -5 -1 -9
-9 -9 -19 0 -21 11 -4 28 16 16 23 15 38 -3z m-54 -30 c5 -11 11 -12 24 -5 15
8 18 6 16 -14 -2 -17 1 -23 11 -19 8 3 13 0 11 -8 -2 -8 2 -13 8 -12 6 1 11
-4 11 -12 0 -8 -4 -12 -9 -9 -4 3 -8 0 -8 -6 0 -6 -5 -8 -12 -4 -7 4 -8 3 -4
-5 4 -6 11 -9 16 -6 14 9 21 -27 8 -43 -11 -13 -10 -15 6 -9 14 5 17 3 13 -8
-4 -8 -2 -17 4 -20 5 -4 8 -1 7 6 -2 6 4 14 12 16 13 4 13 3 0 -6 -8 -6 -11
-11 -6 -11 5 0 3 -7 -4 -15 -11 -13 -10 -14 6 -8 17 6 18 5 4 -12 -14 -17 -13
-18 3 -12 11 4 16 3 12 -3 -3 -6 -1 -10 5 -10 7 0 9 -8 5 -20 -4 -13 -2 -20 5
-18 7 2 14 -7 16 -20 3 -16 0 -21 -8 -16 -10 5 -10 4 -1 -6 6 -7 9 -20 6 -29
-4 -13 -3 -14 5 -1 6 8 9 17 6 21 -2 4 0 10 5 13 5 4 8 -2 6 -11 -1 -10 3 -24
9 -32 9 -12 8 -13 -4 -7 -8 4 -6 1 4 -8 10 -8 23 -13 27 -10 5 3 9 0 9 -6 0
-7 -7 -10 -14 -7 -10 4 -13 1 -9 -9 3 -8 7 -13 10 -11 6 7 60 -47 55 -55 -2
-5 2 -8 7 -8 6 0 11 -7 11 -16 0 -9 6 -14 13 -11 8 3 14 -1 14 -8 0 -7 -8 -12
-19 -10 -10 2 -16 0 -13 -5 3 -4 16 -7 30 -5 14 1 28 -2 32 -8 3 -6 1 -7 -5
-3 -20 12 -13 -6 9 -25 12 -10 27 -16 33 -12 6 4 4 -2 -4 -12 -14 -17 -13 -18
2 -12 10 3 20 2 23 -3 4 -6 1 -10 -4 -10 -6 0 -11 -5 -11 -11 0 -5 4 -8 9 -5
19 12 42 -6 36 -28 -5 -18 -4 -18 10 4 15 23 15 23 10 3 -5 -17 -2 -23 10 -23
10 0 13 5 9 12 -4 7 -3 8 4 4 6 -4 9 -13 5 -21 -4 -11 2 -15 21 -15 16 0 26
-6 26 -14 0 -8 9 -18 20 -21 11 -4 18 -11 15 -16 -8 -12 8 -12 20 0 6 6 20 1
37 -14 25 -21 26 -24 11 -37 -15 -11 -16 -11 -10 4 3 10 2 20 -2 22 -5 3 -8
-4 -7 -16 1 -12 9 -22 19 -24 9 -1 15 1 12 6 -3 4 2 11 11 14 12 4 15 2 10 -9
-7 -20 4 -19 19 2 9 13 14 13 20 3 5 -9 4 -11 -3 -6 -27 16 -8 -11 29 -43 32
-28 42 -32 52 -21 7 7 7 10 1 7 -13 -8 -56 21 -49 33 3 4 0 11 -5 13 -6 3 -5
4 2 3 7 -2 12 -8 11 -14 -1 -5 4 -13 12 -16 8 -3 15 0 15 7 0 7 5 4 10 -5 6
-10 19 -15 30 -13 11 2 18 0 15 -6 -4 -5 -2 -9 4 -9 5 0 13 5 16 10 3 6 11 10
17 10 6 0 2 -8 -10 -18 -15 -13 -18 -22 -11 -29 8 -8 8 -16 0 -30 -10 -17 -10
-17 -11 4 0 12 -5 25 -10 28 -6 4 -8 10 -5 15 3 5 0 12 -6 16 -8 4 -9 3 -5 -4
4 -7 2 -12 -5 -12 -8 0 -5 -5 5 -13 17 -12 17 -14 -1 -28 -17 -13 -17 -13 -4
4 14 17 12 18 -30 14 -24 -3 -38 -3 -31 0 6 2 12 9 12 14 0 4 -7 6 -15 3 -11
-5 -14 -2 -9 12 6 16 5 17 -7 6 -18 -17 -26 -15 -32 9 -3 12 -10 18 -15 15 -6
-3 -12 -1 -14 6 -3 8 -7 6 -11 -4 -4 -12 -1 -16 13 -13 13 3 17 -1 13 -12 -4
-10 -8 -11 -13 -3 -4 6 -11 11 -16 10 -4 -1 -11 7 -15 17 -4 10 -8 14 -8 8 -1
-5 -10 4 -21 20 -11 17 -20 25 -20 20 0 -6 5 -16 11 -22 8 -8 7 -13 -3 -18 -7
-5 -10 -5 -6 0 8 9 -8 27 -40 44 -12 7 -20 16 -17 22 4 5 1 9 -4 9 -6 0 -11
-8 -12 -17 0 -11 -4 -7 -11 10 -7 20 -13 25 -22 18 -9 -8 -20 -2 -41 19 -15
16 -33 26 -39 23 -6 -4 -4 2 4 12 14 17 13 18 -3 12 -11 -4 -16 -3 -12 3 3 6
0 10 -7 10 -10 0 -9 3 2 11 12 8 10 9 -7 4 -17 -5 -23 -2 -23 10 0 10 -6 15
-13 12 -7 -3 -19 5 -27 16 -12 20 -12 21 3 9 12 -10 17 -10 23 -1 4 7 3 9 -4
5 -6 -3 -14 -1 -17 5 -4 5 -13 8 -21 5 -7 -3 -16 0 -20 6 -4 6 -3 8 3 5 6 -4
13 0 16 7 4 10 0 13 -14 11 -11 -2 -17 0 -14 5 3 6 1 18 -5 27 -9 14 -10 14
-7 2 3 -9 -1 -16 -9 -16 -7 0 -11 4 -9 8 7 11 -6 40 -15 34 -10 -6 -40 39 -40
60 0 9 -5 13 -10 10 -6 -4 -9 -1 -8 7 2 7 -2 12 -9 11 -9 -2 -10 4 -3 22 6 16
6 27 -2 31 -7 4 -8 3 -4 -4 4 -7 2 -12 -3 -12 -6 0 -11 9 -11 21 0 12 -4 17
-11 13 -8 -5 -8 -1 0 14 8 15 8 23 -1 28 -6 4 -8 3 -5 -3 3 -5 0 -10 -7 -10
-8 0 -12 6 -9 14 4 9 0 11 -13 7 -14 -4 -15 -3 -6 3 7 6 12 16 10 24 -2 9 6
14 24 13 15 -1 25 2 23 7 -3 4 -17 6 -33 4 -38 -4 -55 11 -41 38 10 17 9 19
-5 14 -9 -4 -15 -1 -13 6 1 7 -5 11 -13 9 -12 -3 -12 -1 -3 9 6 6 9 19 5 28
-5 13 -3 14 10 3 13 -10 18 -9 29 5 12 16 12 17 -1 7 -12 -9 -21 -5 -45 19
-16 17 -20 23 -9 13 21 -17 22 -16 20 1 -1 12 5 17 19 16 11 -1 14 0 8 3 -7 3
-15 5 -19 4 -4 -1 -11 4 -16 12 -7 9 -8 7 -3 -7 5 -16 4 -18 -6 -7 -10 9 -10
15 -1 24 21 21 13 32 -10 12 -19 -15 -20 -16 -9 -1 10 12 10 17 2 17 -7 0 -10
4 -7 9 4 5 0 12 -6 14 -10 4 -10 6 0 6 7 1 15 -6 18 -14z m424 -5 c0 -5 -2
-10 -4 -10 -3 0 -8 5 -11 10 -3 6 -1 10 4 10 6 0 11 -4 11 -10z m1851 -13
c-10 -9 -11 -8 -5 6 3 10 9 15 12 12 3 -3 0 -11 -7 -18z m-1821 -76 c7 -15 7
-22 -2 -27 -7 -4 -10 -4 -6 1 4 4 3 16 -3 26 -5 11 -7 19 -5 19 3 0 10 -9 16
-19z m1875 -62 c-4 -5 -12 -9 -18 -8 -9 0 -8 2 1 6 6 2 9 10 6 15 -4 7 -2 8 5
4 6 -4 9 -12 6 -17z m-112 -42 c3 -7 -3 -13 -14 -13 -13 0 -15 3 -7 13 6 7 12
13 13 13 2 0 5 -6 8 -13z m-33 -92 c-5 -7 -6 -16 -2 -20 4 -5 1 -5 -5 -1 -13
7 -17 -4 -14 -34 1 -11 0 -12 -6 -3 -5 7 -14 9 -22 4 -10 -6 -8 -10 6 -15 17
-7 17 -8 -1 -22 -14 -10 -15 -14 -6 -14 9 0 6 -6 -8 -16 -12 -8 -20 -19 -17
-24 3 -5 0 -12 -6 -16 -8 -4 -9 -3 -5 4 4 7 2 12 -5 12 -6 0 -9 -8 -6 -20 3
-11 1 -20 -5 -20 -6 0 -8 -7 -4 -15 3 -8 0 -14 -7 -12 -7 1 -11 -3 -10 -10 2
-8 -4 -10 -14 -6 -12 5 -15 2 -11 -9 10 -26 -13 -40 -34 -22 -13 13 -15 21 -7
35 5 11 7 19 3 19 -4 0 2 10 14 23 12 13 19 27 15 30 -3 4 -1 7 6 7 8 0 11 -6
7 -16 -4 -12 -2 -15 9 -10 17 6 18 4 9 -18 -6 -15 -8 -15 -21 1 -13 16 -13 16
-3 -6 8 -16 15 -20 22 -13 13 13 20 64 7 57 -5 -4 -6 2 -2 11 4 10 2 15 -4 11
-5 -3 -10 0 -10 8 0 10 4 12 12 5 12 -10 25 -4 25 12 0 5 -4 7 -9 3 -5 -3 -12
-1 -16 4 -3 6 8 20 25 32 16 13 30 29 30 36 0 8 4 11 10 8 12 -7 52 13 46 24
-3 4 1 8 9 8 10 0 12 -4 5 -12z m63 -110 c-3 -9 -8 -14 -10 -11 -3 3 -2 9 2
15 9 16 15 13 8 -4z m-2243 -5 c0 -5 -5 -10 -11 -10 -5 0 -7 5 -4 10 3 6 8 10
11 10 2 0 4 -4 4 -10z m1940 -95 c-7 -9 -15 -13 -17 -11 -6 6 20 36 26 30 2
-2 -2 -10 -9 -19z m35 -24 c-3 -5 6 -21 20 -35 14 -14 22 -26 17 -26 -5 0 -12
3 -16 7 -10 11 -37 12 -30 2 3 -5 10 -7 15 -4 5 4 9 2 9 -3 0 -6 -7 -13 -16
-16 -8 -3 -12 -10 -9 -16 4 -6 -1 -7 -11 -3 -11 4 -15 3 -10 -5 3 -6 -2 -13
-13 -17 -10 -3 -27 -15 -37 -26 -16 -17 -16 -22 -4 -30 13 -9 13 -10 0 -8 -23
3 -51 -12 -43 -24 3 -6 1 -7 -5 -3 -7 4 -12 3 -12 -2 0 -19 -26 -19 -60 -1
-25 13 -29 18 -13 16 11 -2 28 -8 35 -15 15 -12 28 -7 28 12 0 6 -5 4 -10 -4
-5 -8 -10 -13 -11 -10 0 3 -2 14 -4 24 -6 32 7 40 24 17 15 -20 18 -20 36 -6
19 15 19 16 -4 4 -21 -10 -23 -9 -18 5 4 10 3 15 -3 11 -13 -8 -12 16 1 35 9
13 10 13 6 -2 -3 -9 1 -19 9 -22 10 -4 12 -2 8 6 -5 7 -2 9 8 6 8 -4 15 -1 15
7 0 7 -5 12 -11 11 -6 -2 -8 -1 -3 1 4 3 4 9 1 15 -4 6 1 6 13 -1 17 -8 22 -6
32 15 6 14 9 30 6 35 -3 5 1 6 9 3 9 -3 16 -10 16 -15 0 -5 5 -9 12 -9 6 0 4
7 -5 18 -19 21 -13 34 11 25 10 -4 13 -2 8 5 -7 11 0 32 10 32 3 0 3 -4 -1 -9z
m-1040 -81 c3 -5 1 -10 -4 -10 -6 0 -11 5 -11 10 0 6 2 10 4 10 3 0 8 -4 11
-10z m965 0 c0 -5 -5 -10 -11 -10 -5 0 -7 5 -4 10 3 6 8 10 11 10 2 0 4 -4 4
-10z m30 -55 c0 -2 -10 -9 -22 -15 -22 -11 -22 -10 -4 4 21 17 26 19 26 11z
m-145 -45 c3 -6 -1 -7 -9 -4 -18 7 -21 14 -7 14 6 0 13 -4 16 -10z m-65 -42
c0 -9 3 -9 9 1 8 12 14 13 35 3 14 -6 26 -17 26 -24 0 -9 -3 -9 -10 2 -8 12
-10 12 -16 -3 -5 -15 -9 -15 -22 -5 -14 12 -14 10 -2 -12 l13 -25 -23 20 -23
20 12 -23 c7 -12 8 -22 4 -21 -4 1 -11 0 -15 -1 -5 -1 -14 -3 -20 -4 -7 -1
-12 -7 -11 -13 1 -6 -5 -10 -15 -8 -9 1 -20 -3 -24 -9 -5 -8 -8 -7 -8 2 0 7
-4 11 -10 7 -5 -3 -7 -12 -4 -19 4 -10 -6 -14 -41 -13 -32 0 -44 4 -41 13 5
13 -11 13 -33 0 -9 -6 -12 -5 -9 5 3 8 14 14 25 15 26 1 45 13 38 24 -3 4 3 7
13 6 10 0 16 5 14 13 -2 11 0 12 10 4 18 -14 81 3 72 20 -4 7 -4 9 1 5 5 -5
14 1 22 12 16 23 33 26 33 8z m-1450 -54 c0 -2 -9 0 -20 6 -11 6 -20 13 -20
16 0 2 9 0 20 -6 11 -6 20 -13 20 -16z m990 16 c0 -5 -4 -10 -10 -10 -5 0 -10
5 -10 10 0 6 5 10 10 10 6 0 10 -4 10 -10z m215 -59 c-3 -5 -1 -12 5 -16 7 -4
7 -12 0 -25 -8 -16 -8 -18 5 -14 8 3 13 10 10 14 -3 4 1 13 9 19 10 9 15 8 20
-4 3 -9 10 -14 15 -10 5 3 13 0 17 -6 4 -8 3 -9 -4 -5 -7 4 -12 3 -12 -2 0 -6
-10 -10 -22 -10 -13 0 -31 -2 -42 -4 -12 -2 -20 3 -21 15 -2 9 1 17 6 17 5 0
9 5 9 11 0 8 -5 8 -15 -1 -8 -7 -15 -9 -15 -5 0 4 8 14 18 21 20 16 25 17 17
5z m-543 -51 c4 0 8 6 8 13 0 8 2 9 8 1 10 -16 57 -30 47 -14 -6 9 -3 9 13 1
26 -14 35 -14 26 0 -5 8 -1 8 13 0 11 -6 23 -7 27 -4 3 3 6 2 6 -3 0 -5 9 -10
20 -11 13 -1 18 2 13 10 -4 7 0 6 10 -2 9 -7 17 -9 17 -3 0 5 17 9 38 7 20 -1
44 2 52 9 13 10 13 9 1 -6 -14 -19 -7 -23 27 -19 6 1 12 -3 12 -9 0 -5 -7 -10
-15 -10 -8 0 -15 -5 -15 -11 0 -5 5 -7 10 -4 6 3 10 2 10 -4 0 -11 -46 -8 -58
3 -4 4 -1 6 7 4 7 -2 16 4 18 12 4 13 3 13 -6 0 -10 -15 -12 -13 -15 12 0 6
-12 13 -26 15 -23 3 -24 3 -6 -10 22 -16 32 -57 14 -57 -6 0 -8 3 -5 6 3 4 2
15 -4 26 -11 20 -11 20 -32 1 -16 -14 -35 -18 -74 -17 -29 1 -51 -2 -48 -6 7
-12 -21 -6 -37 8 -8 6 -25 9 -38 7 -25 -5 -50 10 -50 29 0 7 4 6 9 -2 7 -11 9
-10 14 3 5 10 3 14 -5 9 -7 -5 -8 -3 -3 7 7 12 6 12 -7 1 -14 -11 -18 -10 -26
4 -7 12 -11 13 -17 4 -4 -6 -2 -17 5 -23 10 -9 11 -9 5 3 -6 12 -5 13 5 3 16
-14 11 -22 -17 -27 -16 -3 -19 1 -17 32 2 47 0 45 24 32 16 -9 22 -7 27 6 6
16 8 15 16 -4 6 -12 14 -22 19 -22z m474 25 c-3 -8 -2 -15 2 -15 4 0 8 -9 9
-21 1 -14 -3 -19 -12 -15 -9 3 -12 0 -8 -10 3 -7 0 -14 -7 -14 -6 0 -9 4 -5 9
3 5 1 12 -5 16 -9 6 -14 -8 -11 -28 1 -4 -7 -3 -18 2 -10 6 -21 7 -25 4 -3 -4
-17 -7 -30 -8 -21 0 -24 3 -21 29 2 16 9 34 15 40 8 8 10 7 5 -5 -4 -10 0 -16
10 -16 8 0 15 4 15 9 0 5 5 6 11 2 6 -3 15 0 20 7 6 10 9 11 9 2 0 -7 5 -13
11 -13 5 0 7 5 3 12 -4 7 -3 8 5 4 6 -4 14 0 17 8 3 9 8 16 11 16 3 0 3 -7 -1
-15z m38 -27 c-3 -5 -1 -15 5 -22 8 -9 7 -13 -4 -13 -7 0 -14 3 -13 6 0 3 0 8
-2 11 -1 3 -3 16 -6 29 -4 20 -2 22 11 11 8 -7 12 -16 9 -22z m-174 8 c0 -2
-8 -10 -17 -17 -16 -13 -17 -12 -4 4 13 16 21 21 21 13z m560 -30 c0 -3 -4 -8
-10 -11 -5 -3 -10 -1 -10 4 0 6 5 11 10 11 6 0 10 -2 10 -4z m-663 -34 c0 -10
-6 -19 -13 -19 -9 0 -9 5 -1 19 7 10 13 18 14 18 1 0 1 -8 0 -18z m-627 -38
c0 -8 -19 -13 -24 -6 -3 5 1 9 9 9 8 0 15 -2 15 -3z m1005 -84 c-3 -5 -11 -10
-16 -10 -6 0 -7 5 -4 10 3 6 11 10 16 10 6 0 7 -4 4 -10z m-128 -33 c2 -3 -3
-7 -11 -10 -8 -3 -20 0 -26 8 -10 12 -8 13 10 10 13 -2 25 -6 27 -8z m-87 -13
c0 -8 -19 -13 -24 -6 -3 5 1 9 9 9 8 0 15 -2 15 -3z"/>
<path d="M891 2347 c-13 -21 -12 -21 5 -5 10 10 16 20 13 22 -3 3 -11 -5 -18
-17z"/>
<path d="M830 2321 c0 -6 4 -12 8 -15 5 -3 9 1 9 9 0 8 -4 15 -9 15 -4 0 -8
-4 -8 -9z"/>
<path d="M755 2300 c3 -5 8 -10 11 -10 2 0 4 5 4 10 0 6 -5 10 -11 10 -5 0 -7
-4 -4 -10z"/>
<path d="M670 2235 c-11 -13 -10 -14 4 -9 9 3 16 10 16 15 0 13 -6 11 -20 -6z"/>
<path d="M546 2064 c-5 -14 -4 -15 9 -4 17 14 19 20 6 20 -5 0 -12 -7 -15 -16z"/>
<path d="M468 1863 c7 -3 16 -2 19 1 4 3 -2 6 -13 5 -11 0 -14 -3 -6 -6z"/>
<path d="M294 1862 c3 -6 -2 -13 -11 -15 -16 -4 -16 -5 -1 -6 21 -1 32 15 17
25 -7 4 -9 3 -5 -4z"/>
<path d="M235 1800 c-8 -13 9 -20 24 -11 10 6 9 10 -3 14 -8 3 -18 2 -21 -3z"/>
<path d="M255 1749 c-4 -6 -5 -12 -2 -15 2 -3 7 2 10 11 7 17 1 20 -8 4z"/>
<path d="M195 1650 c-3 -5 -4 -10 0 -10 3 0 1 -10 -6 -22 -9 -17 -9 -20 4 -15
8 3 19 1 24 -4 6 -6 10 -4 10 5 0 8 -5 14 -11 13 -6 -1 -10 8 -10 21 2 24 -1
27 -11 12z"/>
<path d="M366 1581 c-4 -6 -2 -11 4 -11 7 0 9 -7 5 -17 -5 -14 -3 -15 5 -6 8
7 9 17 2 28 -6 12 -11 14 -16 6z"/>
<path d="M390 1531 c0 -6 4 -12 8 -15 5 -3 9 1 9 9 0 8 -4 15 -9 15 -4 0 -8
-4 -8 -9z"/>
<path d="M376 1477 c3 -10 9 -15 12 -12 3 3 0 11 -7 18 -10 9 -11 8 -5 -6z"/>
<path d="M197 1393 c-10 -9 -9 -23 1 -23 5 0 9 7 9 15 0 17 -1 18 -10 8z"/>
<path d="M228 1038 c5 -5 16 -8 23 -6 8 3 3 7 -10 11 -17 4 -21 3 -13 -5z"/>
<path d="M253 1001 c-9 -15 -10 -22 -1 -27 6 -4 8 -3 4 4 -3 5 -1 12 5 14 7 2
10 9 8 16 -3 8 -9 5 -16 -7z"/>
<path d="M300 933 c0 -19 21 -27 33 -13 9 10 9 11 -2 5 -8 -4 -17 -2 -22 6 -6
9 -9 10 -9 2z"/>
<path d="M353 823 c4 -6 2 -13 -5 -15 -8 -3 -6 -6 4 -10 17 -7 19 15 3 29 -4
4 -5 3 -2 -4z"/>
<path d="M410 766 c0 -2 8 -10 18 -17 15 -13 16 -12 3 4 -13 16 -21 21 -21 13z"/>
<path d="M382 731 c7 -11 16 -17 20 -15 5 3 2 12 -6 20 -21 20 -28 17 -14 -5z"/>
<path d="M609 501 c16 -28 38 -44 38 -26 0 8 -7 15 -14 15 -8 0 -12 4 -9 9 3
5 -1 12 -9 15 -12 4 -13 2 -6 -13z"/>
<path d="M676 488 c3 -5 10 -6 15 -3 13 9 11 12 -6 12 -8 0 -12 -4 -9 -9z"/>
<path d="M700 466 c0 -2 7 -7 16 -10 8 -3 12 -2 9 4 -6 10 -25 14 -25 6z"/>
<path d="M770 444 c0 -8 5 -12 10 -9 6 4 8 11 5 16 -9 14 -15 11 -15 -7z"/>
<path d="M876 367 c3 -10 9 -15 12 -12 3 3 0 11 -7 18 -10 9 -11 8 -5 -6z"/>
<path d="M2292 859 c-41 -30 -50 -40 -34 -38 29 5 34 -2 18 -20 -12 -14 -14
-19 -4 -17 21 3 39 17 33 26 -3 5 2 13 11 18 15 8 14 10 -2 16 -17 7 -17 9 6
26 41 32 17 22 -28 -11z m13 -29 c-3 -5 -13 -6 -21 -3 -12 4 -13 8 -3 14 15 9
32 2 24 -11z"/>
<path d="M2199 728 c-6 -21 -5 -38 1 -38 5 0 8 9 7 20 -1 17 -5 26 -8 18z"/>
<path d="M2198 673 c6 -2 9 -10 6 -15 -4 -7 -2 -8 5 -4 13 9 5 26 -12 25 -9 0
-8 -2 1 -6z"/>
<path d="M1885 449 c-4 -6 -5 -12 -2 -15 2 -3 7 2 10 11 7 17 1 20 -8 4z"/>
<path d="M1871 412 c-1 -7 -6 -10 -13 -6 -6 4 -8 3 -5 -4 8 -12 32 -10 44 3 4
4 3 5 -4 2 -6 -4 -14 -1 -16 5 -4 10 -6 10 -6 0z"/>
<path d="M1759 379 c-26 -20 -23 -29 13 -33 15 -2 25 2 25 11 0 15 -13 17 -22
3 -4 -6 -11 -8 -16 -4 -20 12 24 32 49 23 13 -5 21 -5 18 0 -11 18 -44 18 -67
0z"/>
<path d="M1836 387 c3 -10 9 -15 12 -12 3 3 0 11 -7 18 -10 9 -11 8 -5 -6z"/>
<path d="M1085 320 c-3 -5 -1 -10 4 -10 6 0 11 5 11 10 0 6 -2 10 -4 10 -3 0
-8 -4 -11 -10z"/>
<path d="M1129 299 c-1 -8 -1 -17 0 -21 0 -5 -4 -8 -11 -8 -6 0 -9 -3 -6 -6 4
-3 15 -1 26 5 15 8 24 6 40 -9 21 -20 21 -20 33 1 7 14 8 24 1 31 -13 13 -35
1 -26 -14 4 -6 1 -8 -7 -6 -8 3 -12 12 -11 19 2 8 0 11 -4 7 -4 -4 -13 -3 -21
3 -10 9 -13 8 -14 -2z m81 -18 c0 -6 -4 -12 -8 -15 -5 -3 -9 1 -9 9 0 8 4 15
9 15 4 0 8 -4 8 -9z"/>
<path d="M1240 289 c11 -8 12 -12 3 -16 -7 -2 -13 -9 -13 -14 0 -6 6 -7 13 -2
17 11 49 15 43 5 -2 -4 4 -8 14 -8 11 0 17 2 15 5 -3 2 3 9 11 16 15 11 15 12
0 12 -9 0 -16 -4 -16 -8 0 -12 -49 -5 -55 9 -2 6 -10 12 -17 12 -9 0 -9 -3 2
-11z"/>
<path d="M1577 313 c-11 -11 -8 -20 7 -20 8 0 12 6 9 14 -6 15 -7 15 -16 6z"/>
<path d="M1535 300 c-4 -6 -10 -8 -14 -6 -12 8 -34 -11 -26 -24 5 -8 11 -8 17
-2 6 6 16 8 23 6 7 -3 15 2 18 10 7 18 -9 31 -18 16z"/>
<path d="M1132 2524 c10 -10 20 -16 22 -13 3 3 -5 11 -17 18 -21 13 -21 12 -5
-5z"/>
<path d="M1266 2518 c3 -5 10 -6 15 -3 13 9 11 12 -6 12 -8 0 -12 -4 -9 -9z"/>
<path d="M1115 2491 c-3 -12 -12 -21 -18 -21 -7 0 -5 -5 5 -10 20 -12 51 -2
41 13 -4 6 0 8 9 5 8 -4 20 2 26 13 8 12 8 19 2 19 -5 0 -10 -4 -10 -10 0 -5
-7 -10 -15 -10 -9 0 -18 -7 -21 -15 -4 -8 -10 -15 -15 -15 -6 0 -5 9 1 21 7
11 9 23 7 26 -3 2 -8 -5 -12 -16z"/>
<path d="M1063 2453 c-15 -5 -17 -23 -4 -23 5 0 11 7 15 15 3 8 4 15 3 14 -1
0 -8 -3 -14 -6z"/>
<path d="M1027 2269 c7 -7 15 -10 18 -7 3 3 -2 9 -12 12 -14 6 -15 5 -6 -5z"/>
<path d="M1830 2260 c-8 -5 -18 -6 -24 -3 -5 3 -6 1 -3 -4 4 -6 0 -13 -8 -17
-8 -3 -15 -11 -15 -18 0 -8 3 -9 8 -3 4 6 21 19 37 29 l30 18 -33 -31 c-18
-17 -30 -36 -27 -41 4 -6 10 -8 14 -5 5 2 13 -7 20 -21 6 -14 7 -23 2 -19 -5
3 -12 1 -16 -5 -3 -5 0 -10 8 -10 10 0 13 -7 10 -20 -3 -13 0 -20 8 -20 11 0
11 -2 -1 -10 -10 -6 -11 -10 -3 -10 8 0 11 -9 9 -22 -2 -13 2 -29 8 -37 8 -11
8 -13 -1 -8 -14 9 -24 -5 -28 -38 -1 -15 2 -22 8 -18 6 3 7 1 3 -5 -3 -5 0
-13 6 -16 7 -3 3 -3 -9 -1 -12 3 -25 0 -29 -6 -4 -7 -3 -9 4 -5 6 3 14 2 17
-4 9 -14 -14 -42 -28 -33 -6 3 -7 1 -3 -6 4 -6 13 -9 19 -5 7 3 4 -1 -5 -9
-18 -14 -25 -33 -10 -23 5 3 9 -1 9 -9 0 -8 -5 -11 -10 -8 -6 4 -8 -1 -4 -11
4 -9 3 -15 -2 -12 -5 3 -15 -2 -22 -11 -10 -12 -10 -14 -1 -9 7 4 12 2 12 -5
0 -6 -8 -9 -19 -6 -15 4 -19 0 -16 -16 6 -27 -5 -43 -17 -26 -7 10 -8 9 -4 -5
4 -11 1 -23 -6 -28 -10 -6 -10 -10 2 -18 12 -8 9 -9 -11 -6 -21 3 -26 1 -22
-13 2 -9 -7 -27 -22 -41 -22 -21 -28 -22 -36 -10 -8 12 -9 10 -4 -7 4 -16 0
-26 -19 -38 -14 -10 -31 -13 -38 -9 -10 6 -10 4 1 -9 11 -14 11 -18 -2 -23 -9
-3 -21 -2 -28 2 -8 4 -9 3 -5 -4 4 -7 1 -12 -9 -12 -10 0 -13 -5 -9 -12 5 -7
2 -9 -9 -5 -11 4 -14 2 -10 -9 4 -10 0 -12 -11 -8 -11 4 -16 1 -16 -11 0 -11
-5 -15 -15 -11 -9 3 -23 -6 -37 -24 -12 -17 -28 -30 -35 -30 -7 0 -10 -6 -6
-17 5 -12 3 -14 -7 -8 -8 5 -18 1 -27 -11 -8 -10 -16 -18 -18 -16 -14 7 -16 0
-5 -13 11 -13 10 -14 -4 -9 -11 4 -16 2 -14 -7 2 -9 -4 -13 -16 -11 -14 3 -17
-1 -12 -14 5 -14 4 -15 -9 -4 -13 11 -14 10 -9 -4 5 -12 2 -15 -11 -9 -15 5
-17 2 -12 -16 5 -19 3 -20 -11 -9 -14 11 -15 10 -9 -6 7 -17 6 -17 -10 -5 -11
9 -14 10 -9 2 4 -7 2 -13 -3 -13 -6 0 -11 -5 -11 -11 0 -5 5 -7 12 -3 7 4 8 3
4 -4 -4 -6 -14 -8 -23 -5 -11 4 -14 3 -9 -5 4 -7 3 -12 -3 -12 -6 0 -8 -8 -5
-17 5 -17 5 -17 -6 0 -6 9 -16 15 -21 11 -6 -4 -6 -11 2 -20 10 -12 9 -13 -6
-7 -14 5 -17 3 -12 -10 3 -9 -1 -21 -11 -29 -16 -12 -16 -11 -2 6 14 18 14 19
-7 5 -14 -8 -18 -16 -12 -20 8 -4 8 -9 -1 -14 -6 -4 -9 -14 -6 -22 3 -8 1 -11
-4 -8 -6 3 -10 -1 -10 -10 0 -10 5 -13 12 -9 7 4 8 3 4 -4 -4 -6 -14 -8 -24
-5 -9 3 -14 3 -10 -2 4 -4 3 -17 -3 -28 -7 -12 -7 -17 -1 -13 16 9 23 -22 8
-36 -10 -11 -10 -16 -1 -25 7 -7 17 -9 21 -5 5 4 4 0 -2 -8 -13 -18 -16 -63
-5 -55 5 2 11 -12 14 -32 4 -22 17 -46 33 -60 17 -14 22 -23 13 -24 -8 0 -3
-5 10 -10 15 -6 21 -14 17 -24 -5 -13 -2 -14 15 -4 12 6 19 7 16 1 -4 -5 0
-18 8 -28 15 -19 15 -18 9 1 -4 17 -3 16 8 -3 11 -18 16 -20 27 -10 8 7 12 9
9 3 -3 -5 6 -21 20 -35 13 -14 22 -19 18 -12 -4 6 -2 12 3 12 6 0 11 -5 11
-11 0 -8 4 -8 14 0 11 9 16 9 21 1 4 -7 16 -10 26 -7 10 3 18 2 17 -2 -3 -28
3 -33 18 -15 15 19 16 19 10 -1 l-6 -20 16 20 c16 20 16 20 10 0 -5 -16 -1
-21 16 -22 18 -2 19 0 8 7 -12 7 -12 11 -2 20 6 5 10 7 7 4 -4 -6 19 -34 29
-34 3 0 3 6 0 14 -3 8 0 17 6 21 6 3 10 3 9 -2 -3 -20 2 -34 11 -28 6 4 8 11
5 16 -3 5 1 6 10 3 14 -6 14 -9 -2 -28 -18 -21 -18 -21 3 -4 19 17 21 17 38 0
13 -13 17 -14 14 -2 -2 10 7 14 35 13 21 -1 35 3 31 8 -3 5 -14 7 -25 4 -10
-4 -19 -2 -19 3 0 5 10 8 23 7 12 -1 28 -3 35 -4 7 0 10 -6 6 -13 -5 -7 -3 -8
7 -2 8 5 17 9 21 9 3 0 10 3 14 7 3 4 -3 6 -14 3 -12 -2 -24 0 -26 4 -3 4 7 7
22 5 15 -1 27 -3 27 -4 0 -1 8 -3 17 -5 11 -2 15 2 11 11 -4 12 0 12 21 5 17
-7 27 -7 32 1 4 7 3 8 -4 4 -8 -5 -10 -1 -5 9 4 13 8 14 14 4 10 -17 42 -21
36 -4 -9 23 15 37 34 19 13 -12 19 -12 25 -3 4 8 3 10 -4 5 -7 -4 -12 -3 -12
3 0 12 56 25 70 16 6 -4 10 -3 9 2 -4 22 3 31 21 28 11 -2 23 1 26 7 4 6 2 8
-4 4 -6 -3 -13 -2 -16 3 -4 5 5 8 19 6 14 -1 28 2 32 8 4 6 1 7 -8 3 -8 -4 -6
-1 4 7 9 8 17 19 17 25 0 6 7 9 15 6 8 -4 15 -1 15 6 0 6 5 8 10 5 6 -3 13 1
16 9 3 9 10 16 16 16 5 0 6 -6 2 -12 -4 -8 -3 -10 2 -5 5 5 9 18 9 30 1 12 6
21 13 20 7 -2 12 2 12 8 0 6 7 8 16 5 8 -3 13 -2 9 3 -8 14 6 42 18 34 6 -4 8
0 4 11 -4 10 -3 15 3 11 6 -3 10 -1 10 5 0 6 5 8 13 4 8 -5 7 -2 -2 9 -12 16
-12 17 5 11 10 -4 15 -3 11 1 -4 5 3 15 15 23 13 7 15 11 6 8 -10 -3 -20 0
-24 6 -4 6 -3 8 4 4 5 -3 12 0 15 6 3 10 7 10 20 -1 11 -9 17 -10 17 -2 0 6
-5 11 -11 11 -5 0 -7 5 -4 10 4 6 11 7 17 4 7 -5 8 -2 2 7 -11 19 -14 40 -4
34 4 -3 14 3 21 12 10 12 10 14 2 9 -21 -12 -15 4 10 26 12 11 17 17 10 14 -6
-4 -14 -2 -18 4 -3 5 1 10 11 10 13 0 14 3 4 15 -10 12 -8 13 10 10 21 -4 21
-3 6 19 -14 22 -14 25 0 30 10 4 13 2 8 -6 -4 -7 -3 -8 5 -4 6 4 9 11 7 15 -3
4 -1 13 4 21 5 8 4 22 -2 33 -8 17 -7 18 14 12 17 -5 19 -4 9 4 -13 8 -13 12
0 27 8 9 12 20 11 23 -19 32 -23 43 -14 37 6 -3 14 -1 18 5 4 7 3 9 -4 5 -6
-3 -13 -2 -17 4 -3 5 -1 10 4 10 6 0 11 5 11 11 0 5 -4 8 -8 5 -15 -9 -7 39 8
52 13 12 13 13 -1 9 -15 -5 -16 3 -10 56 1 5 7 5 14 1 8 -5 8 -3 -2 9 -7 9
-18 14 -25 10 -6 -4 -5 1 3 10 7 9 10 17 5 17 -5 0 0 7 10 15 11 8 16 15 10
15 -5 0 -15 10 -23 21 -11 19 -11 21 2 16 13 -5 16 9 7 33 -1 3 -2 9 -1 13 1
5 -3 6 -9 2 -5 -3 -10 -1 -10 5 0 6 -5 8 -12 4 -7 -4 -8 -3 -4 5 4 6 11 9 16
6 5 -3 12 0 16 6 4 8 3 9 -4 5 -15 -9 -15 -1 -1 27 8 16 3 13 -16 -8 -14 -16
-23 -24 -20 -17 4 7 2 19 -5 27 -8 10 -8 15 1 21 7 4 9 3 5 -4 -3 -6 -2 -13 2
-16 5 -3 8 7 7 22 -1 18 -9 31 -26 39 -19 10 -20 13 -6 13 10 0 15 5 12 11 -4
6 -14 8 -22 5 -8 -3 -11 -2 -8 3 3 5 1 12 -4 16 -14 8 -1 36 13 28 6 -3 -2 8
-19 26 -16 17 -35 29 -42 27 -7 -3 -10 1 -6 9 3 8 10 12 17 8 6 -3 0 6 -13 20
-14 15 -29 27 -35 27 -6 0 -4 -5 4 -10 8 -5 10 -10 4 -10 -6 0 -17 7 -24 15
-7 8 -9 15 -6 15 4 0 -13 17 -38 38 -24 20 -45 43 -45 50 -1 9 -8 11 -23 6
-20 -6 -21 -5 -10 8 15 19 -2 37 -30 33 -10 -2 -18 1 -18 6 0 5 5 9 12 9 6 0
8 3 5 6 -4 4 -14 1 -24 -7 -15 -12 -16 -12 -10 3 3 10 3 17 -1 17 -19 -3 -25
2 -12 11 9 6 10 10 3 10 -6 0 -15 -5 -18 -10 -4 -6 -13 -3 -23 8 -9 10 -13 12
-8 5 6 -9 -2 -8 -22 4 -17 10 -28 21 -26 25 3 5 -2 8 -10 8 -9 0 -15 5 -13 12
1 7 -2 12 -8 13 -5 0 -15 3 -20 7 -6 4 -17 3 -25 -2z m50 -16 c0 -8 -19 -13
-24 -6 -3 5 1 9 9 9 8 0 15 -2 15 -3z m-50 -38 c0 -2 -7 -7 -16 -10 -8 -3 -12
-2 -9 4 6 10 25 14 25 6z m415 -246 c3 -5 1 -10 -4 -10 -6 0 -11 5 -11 10 0 6
2 10 4 10 3 0 8 -4 11 -10z m44 -64 c9 -11 9 -16 -1 -22 -7 -4 -10 -4 -6 1 4
4 0 14 -10 21 -9 7 -12 14 -6 14 6 0 17 -6 23 -14z m56 -116 c3 -6 -1 -7 -9
-4 -18 7 -21 14 -7 14 6 0 13 -4 16 -10z m40 -138 c-3 -3 -11 0 -18 7 -9 10
-8 11 6 5 10 -3 15 -9 12 -12z m-949 -230 c-18 -16 -18 -16 -6 6 6 13 14 21
18 18 3 -4 -2 -14 -12 -24z m950 -97 c-1 -8 -8 -21 -16 -28 -10 -10 -11 -9 -4
3 5 8 9 18 10 23 3 14 4 17 8 17 2 0 3 -7 2 -15z m-23 -90 c-3 -9 -8 -14 -10
-11 -3 3 -2 9 2 15 9 16 15 13 8 -4z m-795 -642 c-6 -7 -12 -13 -13 -13 -2 0
-5 6 -8 13 -3 7 3 13 14 13 13 0 15 -3 7 -13z"/>
<path d="M410 2180 c0 -5 5 -10 11 -10 5 0 7 5 4 10 -3 6 -8 10 -11 10 -2 0
-4 -4 -4 -10z"/>
<path d="M380 2136 c0 -2 7 -7 16 -10 8 -3 12 -2 9 4 -6 10 -25 14 -25 6z"/>
<path d="M355 2120 c-3 -5 -1 -10 4 -10 6 0 11 5 11 10 0 6 -2 10 -4 10 -3 0
-8 -4 -11 -10z"/>
<path d="M360 2087 c-16 -15 -21 -17 -17 -6 3 9 0 16 -8 16 -8 0 -11 -7 -7
-15 3 -10 1 -13 -6 -8 -7 4 -12 2 -12 -4 0 -7 6 -10 13 -7 8 3 14 -1 14 -8 0
-7 -5 -12 -11 -11 -6 2 -8 1 -3 -1 19 -11 4 -22 -15 -12 -21 11 -22 11 -9 -5
8 -9 21 -14 30 -11 11 3 10 0 -3 -10 -11 -8 -14 -15 -8 -15 7 0 12 -5 12 -11
0 -5 -4 -8 -9 -4 -5 3 -12 1 -15 -4 -4 -5 2 -8 11 -6 10 2 22 4 26 4 5 1 5 6
2 11 -3 6 1 13 10 16 14 6 14 8 -2 20 -16 12 -16 13 -1 8 23 -8 45 31 22 40
-8 3 -12 11 -8 17 5 8 9 8 14 -1 10 -16 33 -9 35 11 4 23 -29 20 -55 -4z m45
3 c3 -5 2 -10 -4 -10 -5 0 -13 5 -16 10 -3 6 -2 10 4 10 5 0 13 -4 16 -10z
m-35 -46 c0 -8 -4 -14 -9 -14 -11 0 -22 26 -14 34 9 9 23 -3 23 -20z"/>
<path d="M2137 2083 c-8 -7 41 -63 56 -63 5 0 -5 12 -22 26 -17 14 -29 30 -25
35 6 11 0 12 -9 2z"/>
<path d="M1829 2058 c-5 -19 -8 -50 -4 -46 7 7 15 48 9 48 -2 0 -4 -1 -5 -2z"/>
<path d="M186 1864 c-15 -14 -18 -22 -15 -40 0 -4 -5 -11 -13 -16 -11 -8 -10
-9 1 -6 8 2 15 12 17 22 1 10 10 26 20 37 21 23 12 26 -10 3z"/>
<path d="M2307 1849 c7 -7 15 -10 18 -7 3 3 -2 9 -12 12 -14 6 -15 5 -6 -5z"/>
<path d="M2433 1747 c0 -8 6 -14 14 -14 9 0 10 4 2 14 -6 7 -12 13 -14 13 -1
0 -2 -6 -2 -13z"/>
<path d="M2460 1699 c0 -5 5 -7 10 -4 6 3 10 8 10 11 0 2 -4 4 -10 4 -5 0 -10
-5 -10 -11z"/>
<path d="M1664 1642 c3 -6 -2 -15 -11 -21 -10 -5 -15 -12 -12 -15 3 -4 14 2
23 13 13 14 14 21 5 27 -7 4 -10 3 -5 -4z"/>
<path d="M2398 1543 c7 -3 16 -2 19 1 4 3 -2 6 -13 5 -11 0 -14 -3 -6 -6z"/>
<path d="M68 1513 c7 -3 16 -2 19 1 4 3 -2 6 -13 5 -11 0 -14 -3 -6 -6z"/>
<path d="M435 1180 c-3 -6 1 -7 9 -4 18 7 21 14 7 14 -6 0 -13 -4 -16 -10z"/>
<path d="M2524 1094 c1 -8 4 -15 7 -16 2 -2 3 -1 2 1 -2 2 2 9 7 16 7 8 5 12
-4 12 -8 0 -13 -6 -12 -13z"/>
<path d="M515 999 c-4 -6 -5 -12 -2 -15 2 -3 7 2 10 11 7 17 1 20 -8 4z"/>
<path d="M1030 959 c0 -5 5 -7 10 -4 6 3 10 8 10 11 0 2 -4 4 -10 4 -5 0 -10
-5 -10 -11z"/>
<path d="M2310 940 c0 -5 5 -10 10 -10 6 0 10 5 10 10 0 6 -4 10 -10 10 -5 0
-10 -4 -10 -10z"/>
<path d="M1033 905 c0 -8 4 -12 9 -9 5 3 6 10 3 15 -9 13 -12 11 -12 -6z"/>
<path d="M567 886 c-10 -8 -14 -16 -10 -19 5 -3 14 3 21 14 14 22 13 23 -11 5z"/>
<path d="M610 881 c0 -6 4 -13 10 -16 6 -3 7 1 4 9 -7 18 -14 21 -14 7z"/>
<path d="M140 819 c0 -5 5 -7 10 -4 6 3 10 8 10 11 0 2 -4 4 -10 4 -5 0 -10
-5 -10 -11z"/>
<path d="M630 776 c7 -7 13 -7 20 0 6 6 3 10 -10 10 -13 0 -16 -4 -10 -10z"/>
<path d="M710 726 c0 -2 7 -7 16 -10 8 -3 12 -2 9 4 -6 10 -25 14 -25 6z"/>
<path d="M866 631 c16 -16 31 -26 34 -24 3 3 -2 10 -11 16 -9 7 -16 16 -15 21
1 5 -8 10 -18 12 -16 2 -15 -2 10 -25z"/>
<path d="M236 637 c3 -10 9 -15 12 -12 3 3 0 11 -7 18 -10 9 -11 8 -5 -6z"/>
<path d="M796 633 c-6 -14 -5 -15 5 -6 7 7 10 15 7 18 -3 3 -9 -2 -12 -12z"/>
<path d="M1835 641 c-3 -5 -2 -12 3 -15 5 -3 9 1 9 9 0 17 -3 19 -12 6z"/>
<path d="M1315 600 c3 -5 8 -10 11 -10 2 0 4 5 4 10 0 6 -5 10 -11 10 -5 0 -7
-4 -4 -10z"/>
<path d="M850 585 c0 -7 30 -13 34 -7 3 4 -4 9 -15 9 -10 1 -19 0 -19 -2z"/>
<path d="M1422 526 c4 -5 0 -15 -10 -22 -16 -12 -16 -12 3 -11 13 1 20 -4 20
-18 0 -14 6 -19 19 -17 12 2 16 -1 10 -9 -4 -8 -3 -10 4 -5 7 4 12 1 12 -6 0
-9 3 -9 10 2 5 8 10 11 10 6 0 -5 6 -4 13 1 6 6 20 9 30 8 9 -2 15 1 11 6 -3
5 -10 7 -15 4 -5 -4 -9 -2 -9 4 0 5 -9 13 -20 16 -11 4 -18 10 -16 14 3 4 -5
7 -17 6 -12 -1 -31 5 -42 14 -11 9 -17 12 -13 7z m47 -33 c8 -1 17 -7 21 -13
4 -7 10 -11 14 -11 3 1 5 -2 4 -6 -5 -13 -27 -11 -39 3 -6 8 -16 11 -23 7 -6
-3 -8 -3 -4 2 4 4 2 15 -5 23 -10 13 -9 14 3 7 8 -5 21 -10 29 -12z"/>
<path d="M1460 486 c0 -2 8 -10 18 -17 15 -13 16 -12 3 4 -13 16 -21 21 -21
13z"/>
<path d="M1027 514 c-12 -21 22 -40 37 -21 3 4 3 5 -1 2 -3 -3 -11 3 -18 12
-7 9 -15 12 -18 7z"/>
<path d="M1515 500 c3 -5 8 -10 11 -10 2 0 4 5 4 10 0 6 -5 10 -11 10 -5 0 -7
-4 -4 -10z"/>
<path d="M1639 487 c6 -8 9 -16 6 -19 -3 -2 2 -5 10 -5 13 0 13 3 -2 19 -19
21 -31 25 -14 5z"/>
<path d="M2235 490 c-3 -5 -1 -10 4 -10 6 0 11 5 11 10 0 6 -2 10 -4 10 -3 0
-8 -4 -11 -10z"/>
<path d="M1232 477 c14 -11 15 -16 5 -27 -9 -9 -9 -11 0 -6 6 3 14 2 18 -4 4
-6 11 -8 16 -4 12 7 -6 31 -35 45 -19 9 -19 9 -4 -4z"/>
<path d="M1566 481 c-3 -5 0 -14 8 -20 11 -9 17 -8 29 3 8 8 18 12 22 8 5 -4
5 -2 1 5 -7 13 -36 6 -36 -9 0 -5 -5 -6 -10 -3 -6 4 -8 11 -5 16 4 5 4 9 1 9
-3 0 -7 -4 -10 -9z"/>
<path d="M1296 454 c-3 -8 -2 -13 3 -9 5 3 12 -1 14 -7 4 -10 6 -10 6 0 1 7 6
10 11 7 6 -3 10 -4 10 -1 0 3 -9 10 -19 15 -14 8 -20 7 -25 -5z"/>
<path d="M880 110 c-9 -6 -10 -10 -3 -10 6 0 15 5 18 10 8 12 4 12 -15 0z"/>
<path d="M1470 61 c0 -6 4 -13 10 -16 6 -3 7 1 4 9 -7 18 -14 21 -14 7z"/>
<path d="M1230 54 c0 -1 8 -8 17 -15 14 -12 16 -12 8 0 -6 11 -4 13 8 8 9 -3
19 -3 21 2 3 4 -8 7 -25 7 -16 0 -29 -1 -29 -2z"/>
<path d="M1350 56 c0 -2 7 -7 16 -10 8 -3 12 -2 9 4 -6 10 -25 14 -25 6z"/>
</g>
</svg>
