<?xml version="1.0" encoding="iso-8859-1"?>
<!-- Generator: Adobe Illustrator 19.0.0, SVG Export Plug-In . SVG Version: 6.00 Build 0)  -->
<svg xmlns="http://www.w3.org/2000/svg" xmlns:xlink="http://www.w3.org/1999/xlink" version="1.1" id="Layer_1" x="0px" y="0px" viewBox="0 0 512 512" style="enable-background:new 0 0 512 512;" xml:space="preserve" width="512px" height="512px">
<g>
	<g>
		<g>
			<path d="M420.134,381.887c-20.637,0-37.426,16.79-37.426,37.426s16.789,37.426,37.426,37.426s37.426-16.79,37.426-37.426     S440.771,381.887,420.134,381.887z M420.134,436.324c-9.381,0-17.012-7.631-17.012-17.012s7.631-17.012,17.012-17.012     c9.381,0,17.012,7.631,17.012,17.012S429.515,436.324,420.134,436.324z" fill="#FFFFFF"/>
			<path d="M93.509,55.262c-20.637,0-37.426,16.79-37.426,37.426s16.789,37.426,37.426,37.426s37.426-16.79,37.426-37.426     S114.146,55.262,93.509,55.262z M93.509,109.699c-9.381,0-17.012-7.631-17.012-17.012c0-9.381,7.631-17.012,17.012-17.012     c9.381,0,17.012,7.631,17.012,17.012C110.521,102.068,102.89,109.699,93.509,109.699z" fill="#FFFFFF"/>
			<path d="M420.134,327.449c-11.384,0-22.412,2.035-32.875,6.059L309.75,256l77.512-77.511c10.464,4.024,21.492,6.06,32.873,6.06     c0.001,0,0.001,0,0.003,0c24.535,0,47.604-9.557,64.955-26.906c17.351-17.351,26.906-40.419,26.907-64.956     c0-13.854-3.016-27.181-8.963-39.609c-1.429-2.987-4.22-5.095-7.484-5.655c-3.262-0.559-6.596,0.502-8.94,2.843l-47.231,47.231     L415.323,73.44l47.231-47.23c2.342-2.344,3.402-5.675,2.843-8.94c-0.559-3.263-2.667-6.055-5.655-7.485     c-12.427-5.946-25.752-8.96-39.607-8.96c-50.654,0-91.863,41.209-91.863,91.863c0,11.383,2.036,22.411,6.06,32.875l-77.51,77.51     l-77.51-77.51c4.026-10.464,6.06-21.491,6.06-32.875c0-50.654-41.209-91.863-91.863-91.863S1.647,42.033,1.647,92.687     s41.209,91.863,91.863,91.863c11.384,0,22.412-2.035,32.875-6.059l77.508,77.511l-77.497,77.496     c-10.957-4.469-22.54-6.73-34.532-6.73C41.211,326.769,0,367.978,0,418.631c0,13.854,3.016,27.181,8.962,39.609     c1.429,2.987,4.22,5.095,7.485,5.655c3.263,0.559,6.598-0.501,8.94-2.843l47.231-47.231l24.059,24.059l-47.231,47.23     c-2.342,2.344-3.402,5.676-2.843,8.94s2.667,6.055,5.655,7.485c12.428,5.946,25.754,8.962,39.609,8.962     c50.654-0.001,91.863-41.212,91.863-91.865c0-10.73-1.829-21.182-5.445-31.163l78.54-78.54l77.51,77.51     c-4.024,10.464-6.06,21.491-6.06,32.875c0,50.654,41.209,91.863,91.863,91.863c50.654,0,91.863-41.209,91.863-91.863     C512,368.659,470.788,327.449,420.134,327.449z M135.928,159.165c-3.062-3.059-7.719-3.854-11.624-1.99     c-9.653,4.62-20.014,6.961-30.795,6.961c-39.398,0-71.449-32.053-71.449-71.449s32.052-71.449,71.449-71.449     c39.398,0,71.449,32.053,71.449,71.449c0,10.781-2.342,21.142-6.961,30.795c-1.869,3.904-1.071,8.563,1.99,11.624l82.399,82.402     l-24.057,24.057L135.928,159.165z M159.064,377.815c-3.004,3.004-3.832,7.553-2.082,11.425c4.2,9.288,6.331,19.178,6.331,29.392     c0,39.396-32.051,71.449-71.449,71.451c-5.66,0-11.206-0.646-16.594-1.928l43.057-43.057c3.986-3.988,3.986-10.449,0-14.435     l-38.493-38.493c-3.986-3.983-10.449-3.983-14.434,0l-43.057,43.059c-1.283-5.389-1.93-10.935-1.93-16.597     c0-39.396,32.053-71.448,71.449-71.448c11.284,0,22.099,2.574,32.147,7.646c3.937,1.988,8.702,1.222,11.818-1.893     l217.831-217.829c3.061-3.061,3.858-7.719,1.99-11.624c-4.62-9.655-6.963-20.015-6.963-30.795     c0-39.396,32.053-71.449,71.449-71.449c5.66,0,11.206,0.646,16.593,1.927l-43.057,43.057c-3.986,3.988-3.986,10.449,0,14.435     l38.493,38.493c3.986,3.985,10.449,3.985,14.434,0l43.057-43.059c1.282,5.388,1.928,10.934,1.928,16.594     c-0.001,19.084-7.432,37.027-20.929,50.522c-13.495,13.495-31.438,20.926-50.522,20.926c-10.779,0-21.139-2.344-30.794-6.963     c-3.905-1.866-8.563-1.071-11.624,1.99L159.064,377.815z M420.134,490.762c-39.398,0-71.449-32.053-71.449-71.449     c0-10.781,2.342-21.142,6.961-30.795c1.869-3.905,1.071-8.563-1.99-11.624l-82.399-82.401l24.057-24.057l82.401,82.399     c3.062,3.061,7.721,3.857,11.624,1.99c9.653-4.62,20.014-6.961,30.795-6.961c39.398,0,71.449,32.053,71.449,71.449     S459.532,490.762,420.134,490.762z" fill="#FFFFFF"/>
		</g>
	</g>
</g>
<g>
</g>
<g>
</g>
<g>
</g>
<g>
</g>
<g>
</g>
<g>
</g>
<g>
</g>
<g>
</g>
<g>
</g>
<g>
</g>
<g>
</g>
<g>
</g>
<g>
</g>
<g>
</g>
<g>
</g>
</svg>
